<svg width="40" height="40" viewBox="0 0 40 40" fill="none" xmlns="http://www.w3.org/2000/svg">
<path d="M27.2238 11.88C27.6143 11.4895 28.2473 11.4895 28.6378 11.88C29.028 12.2705 29.0282 12.9036 28.6378 13.2941L21.673 20.2589L28.6378 27.2237C29.028 27.6143 29.0282 28.2474 28.6378 28.6378C28.2474 29.0282 27.6143 29.028 27.2238 28.6378L20.2589 21.673L13.2941 28.6378C12.9037 29.0282 12.2706 29.028 11.88 28.6378C11.4895 28.2473 11.4895 27.6143 11.88 27.2237L18.8448 20.2589L11.88 13.2941C11.4895 12.9035 11.4895 12.2705 11.88 11.88C12.2705 11.4895 12.9035 11.4895 13.2941 11.88L20.2589 18.8448L27.2238 11.88Z" fill="#FDFDFD"/>
</svg>
