<svg width="40" height="40" viewBox="0 0 40 40" fill="none" xmlns="http://www.w3.org/2000/svg">
<rect x="1" y="1" width="38" height="38" rx="11" fill="url(#paint0_linear_741_59)" stroke="#414141" stroke-width="2"/>
<path d="M15.5273 27V25.7891L20.332 20.6328C20.944 19.9753 21.4193 19.4349 21.7578 19.0117C22.0964 18.582 22.3307 18.1947 22.4609 17.8496C22.5977 17.5046 22.666 17.127 22.666 16.7168V16.6973C22.666 16.209 22.5553 15.7728 22.334 15.3887C22.1191 14.998 21.8132 14.6921 21.416 14.4707C21.0189 14.2428 20.5501 14.1289 20.0098 14.1289C19.4434 14.1289 18.9421 14.2461 18.5059 14.4805C18.0762 14.7148 17.7409 15.0404 17.5 15.457C17.2591 15.8672 17.1387 16.3424 17.1387 16.8828L17.1289 16.9121L15.4395 16.9023L15.4297 16.8828C15.4362 16.056 15.638 15.3203 16.0352 14.6758C16.4388 14.0247 16.9922 13.5169 17.6953 13.1523C18.3984 12.7812 19.196 12.5957 20.0879 12.5957C20.9147 12.5957 21.6569 12.7682 22.3145 13.1133C22.9785 13.4583 23.4993 13.9271 23.877 14.5195C24.2611 15.112 24.4531 15.7858 24.4531 16.541V16.5605C24.4531 17.0879 24.3587 17.599 24.1699 18.0938C23.9811 18.582 23.6523 19.1289 23.1836 19.7344C22.7148 20.3333 22.0508 21.0723 21.1914 21.9512L17.5 25.7598L17.959 24.8906V25.7598L17.5098 25.418H24.6875V27H15.5273Z" fill="white"/>
<defs>
<linearGradient id="paint0_linear_741_59" x1="20" y1="40" x2="20" y2="0" gradientUnits="userSpaceOnUse">
<stop stop-color="#292929"/>
<stop offset="0.639423" stop-color="#1D1D1D"/>
</linearGradient>
</defs>
</svg>
