<svg width="40" height="40" viewBox="0 0 40 40" fill="none" xmlns="http://www.w3.org/2000/svg">
<rect x="1" y="1" width="38" height="38" rx="11" fill="url(#paint0_linear_741_76)" stroke="#414141" stroke-width="2"/>
<path d="M20.6465 27.3125C20.002 27.3125 19.3639 27.1888 18.7324 26.9414C18.1074 26.694 17.5378 26.2936 17.0234 25.7402C16.5091 25.1868 16.099 24.4577 15.793 23.5527C15.487 22.6478 15.334 21.5345 15.334 20.2129V20.1934C15.334 18.5983 15.5488 17.2344 15.9785 16.1016C16.4082 14.9688 17.0267 14.1029 17.834 13.5039C18.6478 12.8984 19.6243 12.5957 20.7637 12.5957C21.5579 12.5957 22.2708 12.7422 22.9023 13.0352C23.5404 13.3216 24.0742 13.7253 24.5039 14.2461C24.9336 14.7604 25.2266 15.3626 25.3828 16.0527L25.4121 16.1797H23.6348L23.5957 16.0723C23.4525 15.6751 23.2474 15.3366 22.9805 15.0566C22.7201 14.7767 22.401 14.5586 22.0234 14.4023C21.6523 14.2461 21.2259 14.168 20.7441 14.168C19.8913 14.168 19.1947 14.4186 18.6543 14.9199C18.1204 15.4212 17.7233 16.0853 17.4629 16.9121C17.209 17.7324 17.0658 18.6374 17.0332 19.627C17.0267 19.7051 17.0234 19.7865 17.0234 19.8711C17.0234 19.9492 17.0234 20.0306 17.0234 20.1152L17.4434 22.4492C17.4434 23.0677 17.5833 23.6276 17.8633 24.1289C18.1497 24.6237 18.5339 25.0176 19.0156 25.3105C19.4974 25.6035 20.0345 25.75 20.627 25.75C21.2259 25.75 21.7663 25.6068 22.248 25.3203C22.7298 25.0339 23.1107 24.6465 23.3906 24.1582C23.6771 23.6634 23.8203 23.1133 23.8203 22.5078V22.4883C23.8203 21.8698 23.6836 21.3197 23.4102 20.8379C23.1432 20.3496 22.7721 19.9688 22.2969 19.6953C21.8216 19.4219 21.2747 19.2852 20.6562 19.2852C20.0508 19.2852 19.5039 19.4219 19.0156 19.6953C18.5339 19.9622 18.1497 20.3366 17.8633 20.8184C17.5833 21.2936 17.4434 21.834 17.4434 22.4395V22.4492H16.8574V19.9492H17.1699C17.3522 19.5586 17.6191 19.1973 17.9707 18.8652C18.3223 18.5267 18.7487 18.2565 19.25 18.0547C19.7578 17.8529 20.3275 17.752 20.959 17.752C21.8509 17.752 22.6452 17.957 23.3418 18.3672C24.0384 18.7708 24.5885 19.3275 24.9922 20.0371C25.3958 20.7467 25.5977 21.5508 25.5977 22.4492V22.4688C25.5977 23.4062 25.3828 24.2396 24.9531 24.9688C24.5234 25.6914 23.9375 26.2643 23.1953 26.6875C22.4531 27.1042 21.6035 27.3125 20.6465 27.3125Z" fill="white"/>
<defs>
<linearGradient id="paint0_linear_741_76" x1="20" y1="40" x2="20" y2="0" gradientUnits="userSpaceOnUse">
<stop stop-color="#292929"/>
<stop offset="0.639423" stop-color="#1D1D1D"/>
</linearGradient>
</defs>
</svg>
