<svg width="48" height="48" viewBox="0 0 48 48" fill="none" xmlns="http://www.w3.org/2000/svg">
<g clip-path="url(#clip0_105_4)">
<path d="M37.5379 16.1381V23.6163C37.1201 23.5423 36.6893 23.5095 36.2513 23.5095C35.7997 23.5095 35.3555 23.5446 34.925 23.6228V20.0188C34.925 18.8566 34.3085 18.274 33.1886 18.274H14.7857C13.6659 18.274 13.0603 18.8566 13.0603 20.0188V32.3416C13.0603 33.5148 13.6659 34.0888 14.7857 34.0888H27.6885C27.886 35.0254 28.2371 35.9067 28.7198 36.7019H14.8225C11.9437 36.7019 10.4473 35.2273 10.4473 32.3704V16.1381C10.4473 13.2788 11.9437 11.8066 14.8225 11.8066H33.1736C36.0523 11.8066 37.5379 13.2898 37.5379 16.1381Z" fill="white" fill-opacity="0.85"/>
<path d="M18.4897 30.0806V30.8651C18.4897 31.3415 18.3358 31.4906 17.8484 31.4906H17.0748C16.5875 31.4906 16.4336 31.3415 16.4336 30.8651V30.0806C16.4336 29.6042 16.5875 29.466 17.0748 29.466H17.8484C18.3358 29.466 18.4897 29.6042 18.4897 30.0806ZM22.8481 30.0806V30.8651C22.8481 31.3415 22.6942 31.4906 22.2202 31.4906H21.4333C20.9593 31.4906 20.7944 31.3415 20.7944 30.8651V30.0806C20.7944 29.6042 20.9593 29.466 21.4333 29.466H22.2202C22.6942 29.466 22.8481 29.6042 22.8481 30.0806ZM27.2199 30.0806V30.8651C27.2199 31.3415 27.0526 31.4906 26.5786 31.4906H25.7917C25.3177 31.4906 25.1529 31.3415 25.1529 30.8651V30.0806C25.1529 29.6042 25.3177 29.466 25.7917 29.466H26.5786C27.0526 29.466 27.2199 29.6042 27.2199 30.0806ZM18.4897 25.7864V26.5733C18.4897 27.0473 18.3358 27.1879 17.8484 27.1879H17.0748C16.5875 27.1879 16.4336 27.0473 16.4336 26.5733V25.7864C16.4336 25.3124 16.5875 25.1718 17.0748 25.1718H17.8484C18.3358 25.1718 18.4897 25.3124 18.4897 25.7864ZM22.8481 25.7864V26.5733C22.8481 27.0473 22.6942 27.1879 22.2202 27.1879H21.4333C20.9593 27.1879 20.7944 27.0473 20.7944 26.5733V25.7864C20.7944 25.3124 20.9593 25.1718 21.4333 25.1718H22.2202C22.6942 25.1718 22.8481 25.3124 22.8481 25.7864ZM27.2199 25.7864V26.5733C27.2199 27.0473 27.0526 27.1879 26.5786 27.1879H25.7917C25.3177 27.1879 25.1529 27.0473 25.1529 26.5733V25.7864C25.1529 25.3124 25.3177 25.1718 25.7917 25.1718H26.5786C27.0526 25.1718 27.2199 25.3124 27.2199 25.7864ZM22.8481 21.4947V22.2816C22.8481 22.7556 22.6942 22.8961 22.2202 22.8961H21.4333C20.9593 22.8961 20.7944 22.7556 20.7944 22.2816V21.4947C20.7944 21.0206 20.9593 20.8691 21.4333 20.8691H22.2202C22.6942 20.8691 22.8481 21.0206 22.8481 21.4947ZM27.2199 21.4947V22.2816C27.2199 22.7556 27.0526 22.8961 26.5786 22.8961H25.7917C25.3177 22.8961 25.1529 22.7556 25.1529 22.2816V21.4947C25.1529 21.0206 25.3177 20.8691 25.7917 20.8691H26.5786C27.0526 20.8691 27.2199 21.0206 27.2199 21.4947ZM31.5783 21.4947V22.2816C31.5783 22.7556 31.4135 22.8961 30.9395 22.8961H30.1526C29.6785 22.8961 29.5246 22.7556 29.5246 22.2816V21.4947C29.5246 21.0206 29.6785 20.8691 30.1526 20.8691H30.9395C31.4135 20.8691 31.5783 21.0206 31.5783 21.4947Z" fill="white" fill-opacity="0.85"/>
<path d="M43.1174 32.2633C43.1174 36.0191 39.9762 39.13 36.2529 39.13C32.4862 39.13 29.3887 36.041 29.3887 32.2633C29.3887 28.5098 32.4862 25.4014 36.2529 25.4014C40.0112 25.4014 43.1174 28.4989 43.1174 32.2633ZM38.5672 29.2407L35.4161 33.5976L33.8693 31.9029C33.7143 31.7274 33.4721 31.5988 33.168 31.5988C32.6556 31.5988 32.2101 31.9781 32.2101 32.5519C32.2101 32.777 32.3056 33.0363 32.4849 33.2337L34.7174 35.6785C34.9148 35.8916 35.2149 35.985 35.4753 35.985C35.8 35.985 36.1005 35.8505 36.2662 35.6289L40.1199 30.3186C40.2518 30.1333 40.3185 29.9249 40.3185 29.759C40.3185 29.2322 39.8753 28.8169 39.3653 28.8169C39.0276 28.8169 38.7513 28.9913 38.5672 29.2407Z" fill="white" fill-opacity="0.85"/>
</g>
<defs>
<clipPath id="clip0_105_4">
<rect width="42" height="33.5673" fill="white" transform="translate(3 7.45703)"/>
</clipPath>
</defs>
</svg>
