<svg width="128" height="128" viewBox="0 0 128 128" fill="none" xmlns="http://www.w3.org/2000/svg">
<path d="M53.3333 53.3335H74.6666" stroke="white" stroke-width="8" stroke-linecap="round" stroke-linejoin="round"/>
<path d="M101.333 37.3333V21.3333C101.333 19.9188 100.771 18.5623 99.7712 17.5621C98.771 16.5619 97.4145 16 96 16H85.3333C83.9188 16 82.5623 16.5619 81.5621 17.5621C80.5619 18.5623 80 19.9188 80 21.3333V37.3333" stroke="white" stroke-width="8" stroke-linecap="round" stroke-linejoin="round"/>
<path d="M106.667 112C109.496 112 112.209 110.876 114.209 108.876C116.21 106.876 117.333 104.162 117.333 101.333V80.7948C117.333 73.3815 106.667 64.9975 106.667 55.0402V42.6668C106.667 41.2523 106.105 39.8958 105.105 38.8956C104.104 37.8954 102.748 37.3335 101.333 37.3335H80.0001C78.5856 37.3335 77.229 37.8954 76.2288 38.8956C75.2287 39.8958 74.6667 41.2523 74.6667 42.6668V101.333C74.6667 104.162 75.7906 106.876 77.7909 108.876C79.7913 110.876 82.5044 112 85.3334 112H106.667Z" stroke="white" stroke-width="8" stroke-linecap="round" stroke-linejoin="round"/>
<path d="M117.333 85.3335H10.6667" stroke="white" stroke-width="8" stroke-linecap="round" stroke-linejoin="round"/>
<path d="M21.3334 112C18.5044 112 15.7913 110.876 13.7909 108.876C11.7906 106.876 10.6667 104.162 10.6667 101.333V80.7948C10.6667 73.3815 21.3334 64.9975 21.3334 55.0402V42.6668C21.3334 41.2523 21.8953 39.8958 22.8955 38.8956C23.8957 37.8954 25.2523 37.3335 26.6667 37.3335H48.0001C49.4146 37.3335 50.7711 37.8954 51.7713 38.8956C52.7715 39.8958 53.3334 41.2523 53.3334 42.6668V101.333C53.3334 104.162 52.2096 106.876 50.2092 108.876C48.2088 110.876 45.4957 112 42.6667 112H21.3334Z" stroke="white" stroke-width="8" stroke-linecap="round" stroke-linejoin="round"/>
<path d="M48.0001 37.3333V21.3333C48.0001 19.9188 47.4382 18.5623 46.438 17.5621C45.4378 16.5619 44.0812 16 42.6667 16H32.0001C30.5856 16 29.229 16.5619 28.2288 17.5621C27.2287 18.5623 26.6667 19.9188 26.6667 21.3333V37.3333" stroke="white" stroke-width="8" stroke-linecap="round" stroke-linejoin="round"/>
</svg>
