<svg width="128" height="128" viewBox="0 0 128 128" fill="none" xmlns="http://www.w3.org/2000/svg">
<path d="M64 32V64L85.3333 74.6667" stroke="white" stroke-width="8" stroke-linecap="round" stroke-linejoin="round"/>
<path d="M106.667 64V90.6667" stroke="white" stroke-width="8" stroke-linecap="round" stroke-linejoin="round"/>
<path d="M106.667 112H106.72" stroke="white" stroke-width="8" stroke-linecap="round" stroke-linejoin="round"/>
<path d="M113.333 43.7333C109.31 33.9273 102.457 25.5423 93.6473 19.6486C84.8379 13.7549 74.4721 10.6197 63.8729 10.6432C53.2738 10.6667 42.922 13.8477 34.1387 19.7804C25.3555 25.7131 18.5391 34.1283 14.5596 43.9521C10.5801 53.7758 9.61788 64.5625 11.7958 74.9355C13.9738 85.3085 19.1931 94.7973 26.7876 102.191C34.3822 109.585 44.0075 114.548 54.4352 116.447C64.8628 118.346 75.6198 117.095 85.3334 112.853" stroke="white" stroke-width="8" stroke-linecap="round" stroke-linejoin="round"/>
</svg>
