<svg width="48" height="48" viewBox="0 0 48 48" fill="none" xmlns="http://www.w3.org/2000/svg">
<path d="M25.9402 34.9395C26.526 34.3538 27.4756 34.3537 28.0613 34.9395C28.6469 35.5252 28.6469 36.4748 28.0613 37.0605C27.5519 37.57 26.8921 37.9268 26.2068 38.1553C25.5136 38.3863 24.7545 38.5 24.0008 38.5C23.247 38.5 22.488 38.3863 21.7947 38.1553C21.1094 37.9268 20.4497 37.5699 19.9402 37.0605C19.3545 36.4748 19.3545 35.5252 19.9402 34.9395C20.526 34.3538 21.4756 34.3537 22.0613 34.9395C22.16 35.0381 22.3755 35.1861 22.743 35.3086C23.1027 35.4285 23.5387 35.5 24.0008 35.5C24.4628 35.5 24.8989 35.4285 25.2586 35.3086C25.6261 35.186 25.8416 35.038 25.9402 34.9395ZM23.9998 7.5C26.6812 7.50006 29.2627 8.53169 31.1726 10.3828C33.0841 12.2355 34.1668 14.7594 34.1668 17.4004C34.1668 20.3865 34.6489 22.2326 35.2732 23.5137C35.7437 24.4789 36.3236 25.1891 36.99 25.8896L37.6853 26.5967L37.7185 26.6309C38.0582 26.9927 38.3003 27.4359 38.4187 27.9189L38.4617 28.1279L38.4891 28.3398C38.5344 28.8356 38.4492 29.3349 38.242 29.7891C38.0054 30.3075 37.6214 30.741 37.1443 31.042C36.7275 31.3049 36.2529 31.459 35.7654 31.4932L35.5555 31.5H12.4432C11.8826 31.4996 11.3306 31.3412 10.8543 31.04C10.3776 30.7386 9.99463 30.3048 9.75858 29.7861C9.52231 29.2667 9.44555 28.6883 9.54081 28.124C9.63606 27.5601 9.89727 27.0408 10.2859 26.6279L10.3172 26.5957C11.2784 25.6339 12.099 24.8008 12.7264 23.5137C13.3507 22.2327 13.8328 20.3864 13.8328 17.4004C13.8328 14.7593 14.9163 12.2355 16.8279 10.3828C18.7378 8.53193 21.3185 7.50005 23.9998 7.5ZM23.9998 10.5C22.0844 10.5 20.2564 11.238 18.9158 12.5371C17.5767 13.835 16.8328 15.5858 16.8328 17.4004C16.8328 20.7123 16.2965 23.0353 15.4226 24.8281C14.6161 26.4829 13.5622 27.5863 12.6521 28.5H35.3484C34.4367 27.5858 33.3832 26.482 32.5769 24.8281C31.7029 23.0349 31.1668 20.7121 31.1668 17.4004C31.1668 15.5859 30.4238 13.835 29.0848 12.5371C27.7441 11.2377 25.9153 10.5001 23.9998 10.5Z" fill="white"/>
</svg>
