<svg width="48" height="48" viewBox="0 0 48 48" fill="none" xmlns="http://www.w3.org/2000/svg">
<path d="M20.1172 14.623C20.7744 14.623 21.4082 14.8517 21.9121 15.2646L22.1201 15.4521L22.3076 15.6602C22.7205 16.1641 22.9492 16.7979 22.9492 17.4551V25.2773H30.7715C31.4287 25.2773 32.0625 25.506 32.5664 25.9189L32.7744 26.1064L32.9619 26.3145C33.3748 26.8184 33.6035 27.4522 33.6035 28.1094V34.7676C33.6034 35.8717 33.1645 36.9312 32.3838 37.7119C31.603 38.4924 30.5435 38.9316 29.4395 38.9316H13.458C12.3541 38.9314 11.2952 38.4925 10.5146 37.7119C9.73394 36.9312 9.29505 35.8717 9.29492 34.7676V18.7861C9.29505 17.6823 9.73424 16.6234 10.5146 15.8428C11.2952 15.0622 12.3541 14.6233 13.458 14.623H20.1172ZM12.2949 34.7676C12.295 35.076 12.4176 35.3727 12.6357 35.5908C12.8537 35.8088 13.1498 35.9314 13.458 35.9316H19.9492V28.2773H12.2949V34.7676ZM22.9492 35.9316H29.4395C29.7478 35.9316 30.0445 35.8087 30.2627 35.5908C30.4808 35.3727 30.6034 35.076 30.6035 34.7676V28.2773H22.9492V35.9316ZM13.458 17.623C13.1498 17.6233 12.8537 17.7459 12.6357 17.9639C12.4179 18.1819 12.2951 18.4779 12.2949 18.7861V25.2773H19.9492V17.623H13.458ZM36.0986 9.2959C37.6626 9.2959 38.9307 10.564 38.9307 12.1279V20.1182C38.9304 21.6819 37.6624 22.9502 36.0986 22.9502H28.1084C26.5448 22.95 25.2766 21.6818 25.2764 20.1182V12.1279C25.2764 10.5641 26.5446 9.29614 28.1084 9.2959H36.0986ZM28.2764 19.9502H35.9307V12.2959H28.2764V19.9502Z" fill="#F5F5F5"/>
</svg>
