<svg width="24" height="24" viewBox="0 0 24 24" fill="none" xmlns="http://www.w3.org/2000/svg">
<g clip-path="url(#clip0_127_27)">
<path d="M18.0314 7.06788V16.7564C18.0314 18.1761 17.3224 18.8915 15.9337 18.8915H11.3867C12.4758 18.7277 13.5926 18.4943 14.7775 18.1578C16.149 17.755 16.7773 16.846 16.7773 15.2671V5.70888C16.7773 5.46617 16.7576 5.23768 16.7186 5.02513C17.5897 5.26208 18.0314 5.94723 18.0314 7.06788Z" fill="#F5F5F5"/>
<path d="M5.92969 16.5443C5.92969 17.7269 6.65998 18.3684 7.92285 18.2905C10.1052 18.1705 12.1582 17.9218 14.5188 17.2564C15.492 16.9748 15.8467 16.4267 15.8467 15.2671V5.70888C15.8467 4.34636 15.089 3.70382 13.7912 4.01221C11.9958 4.42653 9.99416 4.76409 7.71797 4.90377C6.62078 4.97622 5.92969 5.58607 5.92969 6.79323V16.5443ZM7.14775 16.3323V6.8212C7.14775 6.33311 7.45494 6.13026 7.8974 6.10528C10.023 5.98993 11.9868 5.65355 13.7643 5.24224C14.3084 5.11786 14.6298 5.40349 14.6298 5.93906V15.2266C14.6298 15.7765 14.4577 16.034 13.9894 16.1589C12.0663 16.7101 10.1024 16.9512 7.97412 17.0647C7.45961 17.0897 7.14775 16.8255 7.14775 16.3323Z" fill="#F5F5F5"/>
<path d="M8.5618 8.43783C10.344 8.31778 11.7738 8.06628 13.2268 7.738C13.5335 7.6679 13.6073 7.50926 13.6073 7.32262C13.6073 7.11167 13.4445 6.92451 13.146 6.98572C11.7656 7.29674 10.3393 7.5536 8.55829 7.67131C8.29047 7.69328 8.16895 7.85964 8.16895 8.06705C8.16895 8.28455 8.33058 8.45091 8.5618 8.43783ZM8.5618 10.4693C10.344 10.3481 11.7738 10.0924 13.2268 9.7695C13.5335 9.6994 13.6073 9.54076 13.6073 9.35295C13.6073 9.14198 13.4445 8.95602 13.146 9.01722C11.7656 9.32822 10.3393 9.58391 8.55829 9.70279C8.29047 9.72242 8.16895 9.88995 8.16895 10.092C8.16895 10.3119 8.33058 10.4812 8.5618 10.4693ZM8.5618 12.4996C10.344 12.3796 11.7738 12.1227 13.2268 11.7998C13.5335 11.7297 13.6073 11.5711 13.6073 11.3844C13.6073 11.1735 13.4445 10.9852 13.146 11.0475C11.7656 11.3574 10.3393 11.6142 8.55829 11.7331C8.29047 11.7551 8.16895 11.9214 8.16895 12.1235C8.16895 12.3398 8.33058 12.5127 8.5618 12.4996ZM8.5618 14.5234C9.60072 14.4646 10.2884 14.3623 10.9591 14.2523C11.1827 14.2119 11.3019 14.0336 11.3019 13.8565C11.3019 13.6509 11.1402 13.4519 10.8341 13.5077C10.2413 13.6035 9.57656 13.6992 8.55829 13.758C8.29047 13.7765 8.16895 13.944 8.16895 14.1485C8.16895 14.3659 8.33058 14.5365 8.5618 14.5234Z" fill="#F5F5F5"/>
</g>
<defs>
<clipPath id="clip0_127_27">
<rect width="14" height="16.625" fill="white" transform="translate(5 3)"/>
</clipPath>
</defs>
</svg>
