<svg width="24" height="24" viewBox="0 0 24 24" fill="none" xmlns="http://www.w3.org/2000/svg">
<path d="M12 18V8.66667M12 18C12 17.4696 11.7788 16.9609 11.3849 16.5858C10.9911 16.2107 10.457 16 9.9 16H5.7C5.51435 16 5.3363 15.9298 5.20503 15.8047C5.07375 15.6797 5 15.5101 5 15.3333V6.66667C5 6.48986 5.07375 6.32029 5.20503 6.19526C5.3363 6.07024 5.51435 6 5.7 6H9.2C9.94261 6 10.6548 6.28095 11.1799 6.78105C11.705 7.28115 12 7.95942 12 8.66667M12 18C12 17.4696 12.2212 16.9609 12.6151 16.5858C13.0089 16.2107 13.543 16 14.1 16H18.3C18.4857 16 18.6637 15.9298 18.795 15.8047C18.9263 15.6797 19 15.5101 19 15.3333V14.4667M12 8.66667C12 7.95942 12.295 7.28115 12.8201 6.78105C13.3452 6.28095 14.0574 6 14.8 6H18.3C18.4857 6 18.6637 6.07024 18.795 6.19526C18.9263 6.32029 19 6.48986 19 6.66667V8M14.8 12L16.2 13.3333L19 10.6667" stroke="#F5F5F5" stroke-width="1.5" stroke-linecap="round" stroke-linejoin="round"/>
</svg>
