<svg width="48" height="48" viewBox="0 0 48 48" fill="none" xmlns="http://www.w3.org/2000/svg">
<path d="M29.6494 7.90723C30.4778 7.90723 31.1494 8.5788 31.1494 9.40723V10.6592H33.7773C34.9047 10.6593 35.986 11.1072 36.7832 11.9043C37.5806 12.7017 38.0283 13.7835 38.0283 14.9111V22.2773C38.0282 23.1057 37.3567 23.7773 36.5283 23.7773C35.7002 23.777 35.0284 23.1055 35.0283 22.2773V21.9141H13.2627V34.1738C13.2628 34.5055 13.3944 34.824 13.6289 35.0586C13.8636 35.2933 14.1827 35.4248 14.5146 35.4248H24.6172C25.4455 35.4248 26.117 36.0966 26.1172 36.9248C26.1171 37.7532 25.4456 38.4248 24.6172 38.4248H14.5146C13.3871 38.4248 12.3051 37.977 11.5078 37.1797C10.7107 36.3825 10.2628 35.3012 10.2627 34.1738V14.9111C10.2627 13.7836 10.7106 12.7016 11.5078 11.9043C12.3051 11.107 13.3871 10.6592 14.5146 10.6592H17.1426V9.40723C17.1426 8.5788 17.8142 7.90723 18.6426 7.90723C19.4708 7.90744 20.1426 8.57893 20.1426 9.40723V10.6592H28.1494V9.40723C28.1494 8.57887 28.8211 7.90735 29.6494 7.90723ZM32.4014 24.418C33.2297 24.418 33.9014 25.0896 33.9014 25.918V33.3027L36.8438 30.3613C37.4295 29.7756 38.379 29.7757 38.9648 30.3613C39.5505 30.9471 39.5506 31.8967 38.9648 32.4824L33.4619 37.9863C33.4114 38.0368 33.3562 38.0803 33.3008 38.1221C33.2774 38.1397 33.2549 38.1586 33.2305 38.1748C33.214 38.1858 33.1965 38.1948 33.1797 38.2051C33.1565 38.2192 33.1333 38.2332 33.1094 38.2461C33.0744 38.2648 33.039 38.2821 33.0029 38.2979C32.996 38.3009 32.9894 38.3047 32.9824 38.3076C32.9523 38.3203 32.9213 38.3302 32.8906 38.3408C32.8727 38.347 32.8551 38.3539 32.8369 38.3594C32.8133 38.3665 32.7894 38.372 32.7656 38.3779C32.7416 38.3839 32.7178 38.3907 32.6934 38.3955C32.6662 38.4009 32.6387 38.4043 32.6113 38.4082C32.5909 38.4111 32.5705 38.415 32.5498 38.417C32.4507 38.4268 32.351 38.4269 32.252 38.417C32.2282 38.4146 32.205 38.4097 32.1816 38.4062C32.1579 38.4027 32.134 38.4002 32.1104 38.3955C32.082 38.3899 32.0541 38.3831 32.0264 38.376C32.0058 38.3707 31.9852 38.3656 31.9648 38.3594C31.9467 38.3539 31.929 38.347 31.9111 38.3408C31.8804 38.3302 31.8494 38.3203 31.8193 38.3076C31.8124 38.3047 31.8058 38.3009 31.7988 38.2979C31.7628 38.2821 31.7273 38.2649 31.6924 38.2461C31.6684 38.2332 31.6452 38.2192 31.6221 38.2051C31.6053 38.1948 31.5877 38.1858 31.5713 38.1748C31.5469 38.1586 31.5244 38.1397 31.501 38.1221C31.4458 38.0804 31.3911 38.0366 31.3408 37.9863L25.8369 32.4824C25.2512 31.8967 25.2514 30.9471 25.8369 30.3613C26.4227 29.7755 27.3722 29.7755 27.958 30.3613L30.9014 33.3047V25.918C30.9014 25.0895 31.5729 24.418 32.4014 24.418ZM14.5146 13.6592C14.1827 13.6592 13.8636 13.7907 13.6289 14.0254C13.3943 14.2601 13.2627 14.5792 13.2627 14.9111V18.9141H35.0283V14.9111C35.0283 14.5791 34.8969 14.2601 34.6621 14.0254C34.4275 13.7909 34.1091 13.6593 33.7773 13.6592H31.1494V14.9111C31.1492 15.7394 30.4777 16.4111 29.6494 16.4111C28.8212 16.411 28.1496 15.7393 28.1494 14.9111V13.6592H20.1426V14.9111C20.1424 15.7392 19.4707 16.4109 18.6426 16.4111C17.8143 16.4111 17.1428 15.7394 17.1426 14.9111V13.6592H14.5146Z" fill="#F5F5F5"/>
</svg>
