<svg width="48" height="48" viewBox="0 0 48 48" fill="none" xmlns="http://www.w3.org/2000/svg">
<path d="M29.5996 8.05664C30.428 8.05673 31.0996 8.72827 31.0996 9.55664V10.9258H33.7422C36.1492 10.9258 38.0029 12.9368 38.0029 15.2949V35.3789C38.0027 37.7369 36.1491 39.748 33.7422 39.748H14.415C12.0082 39.7479 10.1545 37.7368 10.1543 35.3789V15.2949C10.1543 12.9368 12.0081 10.9259 14.415 10.9258H17.0557V9.55664C17.0557 8.72836 17.7274 8.05688 18.5557 8.05664C19.3841 8.05664 20.0557 8.72821 20.0557 9.55664V10.9258H28.0996V9.55664C28.0996 8.72821 28.7712 8.05664 29.5996 8.05664ZM13.1543 22.5322V35.3789C13.1545 36.1896 13.7726 36.7479 14.415 36.748H33.7422C34.3847 36.748 35.0027 36.1896 35.0029 35.3789V22.5322H13.1543ZM14.415 13.9258C13.7725 13.9259 13.1543 14.484 13.1543 15.2949V19.5322H35.0029V15.2949C35.0029 14.484 34.3848 13.9258 33.7422 13.9258H31.0996V15.2949C31.0993 16.1231 30.4278 16.7948 29.5996 16.7949C28.7713 16.7949 28.0999 16.1231 28.0996 15.2949V13.9258H20.0557V15.2949C20.0554 16.1231 19.3839 16.7949 18.5557 16.7949C17.7276 16.7947 17.0559 16.123 17.0557 15.2949V13.9258H14.415Z" fill="white"/>
</svg>
