<svg width="48" height="48" viewBox="0 0 48 48" fill="none" xmlns="http://www.w3.org/2000/svg">
<path d="M26.5957 12.5C27.3239 12.5 28.0424 12.689 28.6748 13.0518C29.3075 13.4147 29.8342 13.9401 30.1924 14.5781L30.8242 15.7031L30.8984 15.8164C30.981 15.9253 31.0884 16.0214 31.2178 16.0957C31.391 16.1951 31.5939 16.25 31.8037 16.25H34.4004C35.4691 16.2501 36.5054 16.6582 37.2783 17.4014C38.0532 18.1465 38.5 19.1699 38.5 20.25V31.5C38.5 32.5801 38.0532 33.6035 37.2783 34.3486C36.5054 35.0918 35.4691 35.4999 34.4004 35.5H13.5996C12.5309 35.4999 11.4946 35.0918 10.7217 34.3486C9.94684 33.6035 9.5 32.5801 9.5 31.5V20.25C9.5 19.1699 9.94684 18.1465 10.7217 17.4014C11.4946 16.6582 12.5309 16.2501 13.5996 16.25H16.1963C16.4059 16.25 16.6081 16.1949 16.7812 16.0957C16.954 15.9967 17.0883 15.8595 17.1758 15.7041L17.8115 14.5742L17.9531 14.3408C18.3028 13.8087 18.7758 13.3678 19.3291 13.0508C19.9609 12.6889 20.678 12.5 21.4053 12.5H26.5957ZM21.4053 15.5C21.1956 15.5 20.9934 15.5552 20.8203 15.6543C20.6908 15.7285 20.5827 15.8238 20.5 15.9326L20.4258 16.0459L19.79 17.1758C19.4315 17.8128 18.9047 18.337 18.2725 18.6992C17.6407 19.0611 16.9236 19.25 16.1963 19.25H13.5996C13.2895 19.2501 13.0029 19.3692 12.8008 19.5635C12.6007 19.7559 12.5 20.0043 12.5 20.25V31.5C12.5 31.7457 12.6007 31.9941 12.8008 32.1865C13.0029 32.3808 13.2895 32.4999 13.5996 32.5H34.4004C34.7105 32.4999 34.9971 32.3808 35.1992 32.1865C35.3993 31.9941 35.5 31.7457 35.5 31.5V20.25C35.5 20.0043 35.3993 19.7559 35.1992 19.5635C34.9971 19.3692 34.7105 19.2501 34.4004 19.25H31.8037C31.0757 19.25 30.3578 19.0609 29.7256 18.6982C29.1718 18.3806 28.699 17.9384 28.3496 17.4053L28.208 17.1719L27.5762 16.0469C27.4888 15.8912 27.3545 15.7535 27.1816 15.6543C27.0084 15.555 26.8056 15.5 26.5957 15.5H21.4053ZM24 19.5C27.0376 19.5 29.5 21.9624 29.5 25C29.5 28.0376 27.0376 30.5 24 30.5C20.9624 30.5 18.5 28.0376 18.5 25C18.5 21.9624 20.9624 19.5 24 19.5ZM24 22.5C22.6193 22.5 21.5 23.6193 21.5 25C21.5 26.3807 22.6193 27.5 24 27.5C25.3807 27.5 26.5 26.3807 26.5 25C26.5 23.6193 25.3807 22.5 24 22.5Z" fill="white"/>
</svg>
