<svg width="24" height="24" viewBox="0 0 24 24" fill="none" xmlns="http://www.w3.org/2000/svg">
<g clip-path="url(#clip0_127_31)">
<path d="M12.3155 16.3011H18.4552C18.7533 16.3011 18.9999 16.0656 18.9999 15.7663C18.9999 15.4632 18.7533 15.2277 18.4552 15.2277H12.3155C12.0174 15.2277 11.7769 15.4632 11.7769 15.7663C11.7769 16.0656 12.0174 16.3011 12.3155 16.3011Z" fill="#F5F5F5"/>
<path d="M7.69027 18.4456C9.15883 18.4456 10.3794 17.225 10.3794 15.7553C10.3794 14.2768 9.15883 13.0612 7.69027 13.0612C6.2145 13.0612 5 14.2818 5 15.7553C5 17.225 6.21951 18.4456 7.69027 18.4456ZM7.69027 17.4094C6.78915 17.4094 6.03625 16.6514 6.03625 15.7553C6.03625 14.8553 6.79416 14.0974 7.69027 14.0974C8.58528 14.0974 9.34428 14.8553 9.34428 15.7553C9.34428 16.6514 8.58528 17.4094 7.69027 17.4094Z" fill="#F5F5F5"/>
<path d="M12.3155 9.24124H18.4552C18.7533 9.24124 18.9999 9.00464 18.9999 8.7015C18.9999 8.40338 18.7533 8.16787 18.4552 8.16787H12.3155C12.0174 8.16787 11.7769 8.40338 11.7769 8.7015C11.7769 9.00464 12.0174 9.24124 12.3155 9.24124Z" fill="#F5F5F5"/>
<path d="M7.69027 11.3857C9.15663 11.3857 10.3794 10.1701 10.3794 8.7015C10.3794 7.22683 9.15883 6.00732 7.69027 6.00732C6.2145 6.00732 5 7.22683 5 8.7015C5 10.1701 6.21951 11.3857 7.69027 11.3857ZM7.37016 10.1457C7.23428 10.1457 7.13783 10.0752 7.04407 9.96703L6.36149 9.14736C6.29496 9.07252 6.27335 8.99817 6.27335 8.8983C6.27335 8.70699 6.41863 8.5567 6.59772 8.5567C6.7203 8.5567 6.80576 8.60773 6.88951 8.7126L7.36015 9.29826L8.44561 7.55793C8.52435 7.43706 8.62361 7.37273 8.74337 7.37273C8.92858 7.37273 9.08716 7.51581 9.08716 7.68489C9.08716 7.77145 9.06276 7.8469 9.00451 7.94287L7.70235 9.96264C7.62862 10.0791 7.50995 10.1457 7.37016 10.1457Z" fill="#F5F5F5"/>
</g>
<defs>
<clipPath id="clip0_127_31">
<rect width="14" height="12.4456" fill="white" transform="translate(5 6)"/>
</clipPath>
</defs>
</svg>
