<svg width="48" height="48" viewBox="0 0 48 48" fill="none" xmlns="http://www.w3.org/2000/svg">
<path d="M28.5 8.5C30.1569 8.5 31.5 9.84315 31.5 11.5H32.25C33.382 11.5 34.4649 11.954 35.2607 12.7578C36.056 13.5611 36.4999 14.6478 36.5 15.7773V35.2227C36.4999 36.3522 36.056 37.4389 35.2607 38.2422C34.4649 39.046 33.382 39.5 32.25 39.5H15.75C14.618 39.5 13.5351 39.046 12.7393 38.2422C11.944 37.4389 11.5001 36.3522 11.5 35.2227V15.7773C11.5001 14.6478 11.944 13.5611 12.7393 12.7578C13.5351 11.954 14.618 11.5 15.75 11.5H16.5C16.5 9.84315 17.8431 8.5 19.5 8.5H28.5ZM15.75 14.5C15.4234 14.5 15.1067 14.6312 14.8711 14.8691C14.6353 15.1075 14.5001 15.4339 14.5 15.7773V35.2227C14.5001 35.5661 14.6353 35.8925 14.8711 36.1309C15.1067 36.3688 15.4234 36.5 15.75 36.5H32.25C32.5766 36.5 32.8933 36.3688 33.1289 36.1309C33.3647 35.8925 33.4999 35.5661 33.5 35.2227V15.7773C33.4999 15.4339 33.3647 15.1075 33.1289 14.8691C32.8933 14.6312 32.5766 14.5 32.25 14.5H31.5C31.5 16.1569 30.1569 17.5 28.5 17.5H19.5C17.8431 17.5 16.5 16.1569 16.5 14.5H15.75ZM19.5 14.5H28.5V11.5H19.5V14.5Z" fill="white"/>
</svg>
