<svg width="48" height="48" viewBox="0 0 48 48" fill="none" xmlns="http://www.w3.org/2000/svg">
<path d="M34.1816 17.4092C36.4158 17.4092 38.2275 19.2209 38.2275 21.4551V34.1816C38.2275 36.4158 36.4158 38.2275 34.1816 38.2275H21.4551C19.2209 38.2275 17.4092 36.4158 17.4092 34.1816V21.4551C17.4092 19.2208 19.2208 17.4092 21.4551 17.4092H34.1816ZM21.4551 20.4092C20.8777 20.4092 20.4092 20.8777 20.4092 21.4551V34.1816C20.4092 34.759 20.8777 35.2275 21.4551 35.2275H34.1816C34.759 35.2275 35.2275 34.759 35.2275 34.1816V21.4551C35.2275 20.8777 34.759 20.4092 34.1816 20.4092H21.4551ZM26.5449 9.77246C28.7733 9.77246 30.5907 11.5901 30.5908 13.8184C30.5906 14.6465 29.919 15.3183 29.0908 15.3184C28.2627 15.3182 27.5911 14.6465 27.5908 13.8184C27.5907 13.2469 27.1164 12.7725 26.5449 12.7725H13.8184C13.247 12.7726 12.7726 13.247 12.7725 13.8184V26.5449C12.7725 27.1164 13.2469 27.5907 13.8184 27.5908C14.6465 27.5911 15.3182 28.2627 15.3184 29.0908C15.3183 29.919 14.6465 30.5906 13.8184 30.5908C11.5901 30.5907 9.77246 28.7733 9.77246 26.5449V13.8184C9.77261 11.5901 11.5901 9.77261 13.8184 9.77246H26.5449Z" fill="white"/>
</svg>
