<svg width="48" height="48" viewBox="0 0 48 48" fill="none" xmlns="http://www.w3.org/2000/svg">
<path d="M31.1455 11.4004C31.8355 11.4488 32.5053 11.6642 33.0957 12.0303C33.769 12.4478 34.3127 13.0449 34.666 13.7539L39.1465 22.7021L39.251 22.9268C39.3486 23.1536 39.4246 23.3886 39.4814 23.6279C39.4863 23.6484 39.4921 23.6687 39.4961 23.6895C39.5632 23.9919 39.5986 24.3014 39.5986 24.6133V32.2617C39.5985 33.3932 39.1487 34.4782 38.3486 35.2783C37.5483 36.0786 36.4628 36.5283 35.3311 36.5283H13.1924C12.0606 36.5283 10.9751 36.0786 10.1748 35.2783C9.37481 34.4782 8.92492 33.3932 8.9248 32.2617V24.6133C8.92486 24.3007 8.96089 23.9906 9.02832 23.6875C9.03018 23.678 9.03215 23.6686 9.03418 23.6592C9.11003 23.3288 9.22409 23.0072 9.37695 22.7021L13.8574 13.7539C14.2108 13.0448 14.7544 12.4478 15.4277 12.0303C16.1024 11.6119 16.8809 11.3901 17.6748 11.3896H30.8486L31.1455 11.4004ZM11.9248 32.2617C11.9249 32.5976 12.0585 32.9197 12.2959 33.1572C12.5336 33.3949 12.8563 33.5283 13.1924 33.5283H35.3311C35.6672 33.5283 35.9899 33.3949 36.2275 33.1572C36.465 32.9197 36.5985 32.5976 36.5986 32.2617V25.4775H11.9248V32.2617ZM15.9746 27.9941C16.8026 27.9946 17.4746 28.666 17.4746 29.4941C17.4746 30.3222 16.8026 30.9937 15.9746 30.9941H15.96C15.1316 30.9941 14.46 30.3225 14.46 29.4941C14.46 28.6657 15.1315 27.9941 15.96 27.9941H15.9746ZM21.5088 27.9941C22.337 27.9944 23.0088 28.6658 23.0088 29.4941C23.0087 30.3224 22.337 30.9939 21.5088 30.9941H21.4941C20.6658 30.9941 19.9942 30.3225 19.9941 29.4941C19.9941 28.6657 20.6658 27.9942 21.4941 27.9941H21.5088ZM17.6758 14.3896C17.4402 14.3899 17.209 14.4559 17.0088 14.5801C16.8086 14.7043 16.6469 14.8818 16.542 15.0928L16.54 15.0967L12.8447 22.4775H35.6787L31.9834 15.0967L31.9814 15.0928C31.8765 14.8819 31.7148 14.7042 31.5146 14.5801C31.3643 14.4869 31.1964 14.4267 31.0225 14.4023L30.8477 14.3896H17.6758Z" fill="white"/>
</svg>
