<svg width="48" height="48" viewBox="0 0 48 48" fill="none" xmlns="http://www.w3.org/2000/svg">
<path d="M37.5 27C38.3284 27 39 27.6716 39 28.5V34.5C39 35.6935 38.5256 36.8377 37.6816 37.6816C36.8377 38.5256 35.6935 39 34.5 39H13.5C12.3065 39 11.1623 38.5256 10.3184 37.6816C9.47445 36.8377 9 35.6935 9 34.5V28.5C9 27.6716 9.67157 27 10.5 27C11.3284 27 12 27.6716 12 28.5V34.5C12 34.8978 12.1581 35.2792 12.4395 35.5605C12.7208 35.8419 13.1022 36 13.5 36H34.5C34.8978 36 35.2792 35.8419 35.5605 35.5605C35.8419 35.2792 36 34.8978 36 34.5V28.5C36 27.6716 36.6716 27 37.5 27ZM24 9C24.8284 9 25.5 9.67157 25.5 10.5V24.8789L30.4395 19.9395C31.0252 19.3537 31.9748 19.3537 32.5605 19.9395C33.1463 20.5252 33.1463 21.4748 32.5605 22.0605L25.0605 29.5605C24.9898 29.6313 24.9118 29.6945 24.8281 29.75C24.8182 29.7566 24.8079 29.7623 24.7979 29.7686C24.766 29.7886 24.7336 29.8075 24.7002 29.8252C24.69 29.8306 24.6792 29.8347 24.6689 29.8398C24.6365 29.8561 24.604 29.8719 24.5703 29.8857C24.5542 29.8924 24.5378 29.8982 24.5215 29.9043C24.4928 29.915 24.4641 29.9256 24.4346 29.9346C24.4145 29.9406 24.3943 29.946 24.374 29.9512C24.3463 29.9583 24.3184 29.9651 24.29 29.9707C24.2664 29.9753 24.2425 29.978 24.2188 29.9814C24.1954 29.9849 24.1722 29.9899 24.1484 29.9922C24.0494 30.002 23.9496 30.002 23.8506 29.9922C23.8269 29.9898 23.8036 29.9849 23.7803 29.9814C23.7565 29.9779 23.7326 29.9754 23.709 29.9707C23.6806 29.9651 23.6527 29.9583 23.625 29.9512C23.6047 29.946 23.5845 29.9406 23.5645 29.9346C23.5353 29.9257 23.5069 29.9149 23.4785 29.9043C23.4619 29.8981 23.4451 29.8925 23.4287 29.8857C23.395 29.8718 23.3625 29.8561 23.3301 29.8398C23.3198 29.8347 23.309 29.8306 23.2988 29.8252C23.2655 29.8075 23.233 29.7886 23.2012 29.7686C23.1912 29.7622 23.1808 29.7566 23.1709 29.75C23.0875 29.6946 23.01 29.6311 22.9395 29.5605L15.4395 22.0605C14.8537 21.4748 14.8537 20.5252 15.4395 19.9395C16.0252 19.3537 16.9748 19.3537 17.5605 19.9395L22.5 24.8789V10.5C22.5 9.67157 23.1716 9 24 9Z" fill="white"/>
</svg>
