<svg width="48" height="48" viewBox="0 0 48 48" fill="none" xmlns="http://www.w3.org/2000/svg">
<path d="M26.8887 8.05567C27.543 8.05491 28.1914 8.18316 28.7959 8.4336C29.4002 8.68402 29.9492 9.05151 30.4111 9.51465L35.5938 14.6973H35.5928C36.0567 15.1591 36.4248 15.7079 36.6758 16.3125C36.927 16.9178 37.0564 17.5673 37.0557 18.2227V35.5557C37.0556 36.7196 36.5926 37.8361 35.7695 38.6592C34.9466 39.4819 33.8307 39.9442 32.667 39.9443H15.333C14.1691 39.9443 13.0525 39.4822 12.2295 38.6592C11.4065 37.8361 10.9444 36.7196 10.9443 35.5557V12.4443C10.9444 11.2805 11.4065 10.1638 12.2295 9.34082C13.0525 8.51783 14.1691 8.05575 15.333 8.05567H26.8887ZM15.333 11.0557C14.9648 11.0558 14.612 11.2025 14.3516 11.4629C14.0912 11.7233 13.9444 12.0761 13.9443 12.4443V35.5557C13.9444 35.924 14.0911 36.2776 14.3516 36.5381C14.6119 36.7982 14.9649 36.9443 15.333 36.9443H32.667C33.035 36.9442 33.3881 36.7982 33.6484 36.5381C33.9089 36.2776 34.0556 35.924 34.0557 35.5557V19.7227H28.333C27.5523 19.7226 26.8031 19.4124 26.251 18.8604C25.6989 18.3083 25.3888 17.559 25.3887 16.7783V11.0557H15.333ZM29.7783 29.7227C30.6065 29.723 31.2783 30.3944 31.2783 31.2227C31.2781 32.0507 30.6064 32.7224 29.7783 32.7227H18.2227C17.3944 32.7227 16.7229 32.0509 16.7227 31.2227C16.7227 30.3942 17.3942 29.7227 18.2227 29.7227H29.7783ZM29.7783 23.9443C30.6065 23.9446 31.2783 24.6161 31.2783 25.4443C31.2783 26.2726 30.6065 26.944 29.7783 26.9443H18.2227C17.3942 26.9443 16.7227 26.2728 16.7227 25.4443C16.7227 24.616 17.3943 23.9443 18.2227 23.9443H29.7783ZM21.1113 18.167C21.9396 18.1672 22.6113 18.8387 22.6113 19.667C22.6112 20.4951 21.9394 21.1668 21.1113 21.167H18.2227C17.3943 21.167 16.7228 20.4953 16.7227 19.667C16.7227 18.8386 17.3942 18.167 18.2227 18.167H21.1113ZM28.3887 16.7227H33.376L28.3887 11.7354V16.7227Z" fill="white"/>
</svg>
