<svg width="48" height="48" viewBox="0 0 48 48" fill="none" xmlns="http://www.w3.org/2000/svg">
<path d="M29.1114 7.5C29.9396 7.50026 30.6114 8.17174 30.6114 9C30.6114 9.82826 29.9396 10.4997 29.1114 10.5H28.4444V17.667L28.4551 17.8408C28.4768 18.0132 28.5305 18.1807 28.6143 18.334L33.377 27.0459C33.3828 27.0562 33.3881 27.0667 33.3936 27.0771L36.5733 32.8936H36.5723C36.9379 33.5618 37.1235 34.3135 37.1104 35.0752C37.0972 35.837 36.8867 36.5829 36.4981 37.2383C36.1095 37.8936 35.5566 38.4364 34.8946 38.8135C34.3154 39.1433 33.6695 39.3369 33.0069 39.3799L32.7217 39.3887H15.3887C14.6269 39.3888 13.8779 39.1905 13.2159 38.8135C12.5539 38.4364 12.0009 37.8936 11.6123 37.2383C11.2238 36.5829 11.0132 35.837 11 35.0752C10.9869 34.3136 11.1725 33.5618 11.5381 32.8936L14.712 27.085C14.7204 27.0688 14.7293 27.0529 14.7383 27.0371L19.4961 18.334C19.6079 18.1296 19.6662 17.9 19.6661 17.667V10.5H19C18.1716 10.5 17.5 9.82843 17.5 9C17.5 8.17158 18.1716 7.5 19 7.5H29.1114ZM14.17 34.333C14.0543 34.5444 13.995 34.7825 13.9991 35.0234C14.0032 35.2645 14.0705 35.5006 14.1934 35.708C14.3163 35.9153 14.4908 36.0877 14.7002 36.207C14.9097 36.3263 15.1476 36.3887 15.3887 36.3887H32.7217C32.9628 36.3887 33.2007 36.3263 33.4102 36.207C33.6196 36.0877 33.7941 35.9153 33.917 35.708C34.04 35.5006 34.1072 35.2645 34.1114 35.0234C34.1144 34.8426 34.0818 34.6636 34.0166 34.4961L33.9405 34.333L31.1768 29.2773H16.9336L14.17 34.333ZM22.6661 10.5V17.666L22.6582 17.9414C22.6182 18.582 22.4378 19.2073 22.1289 19.7725L18.5733 26.2773H29.5371L25.9815 19.7725C25.6285 19.1265 25.4441 18.4021 25.4444 17.666V10.5H22.6661Z" fill="#F5F5F5"/>
</svg>
