<svg width="48" height="48" viewBox="0 0 48 48" fill="none" xmlns="http://www.w3.org/2000/svg">
<path d="M35.2 35C35.9426 35 36.6548 34.7149 37.1799 34.2075C37.705 33.7 38 33.0118 38 32.2941V18.7647C38 18.0471 37.705 17.3588 37.1799 16.8514C36.6548 16.3439 35.9426 16.0588 35.2 16.0588H24.14C23.6717 16.0633 23.2098 15.9541 22.7964 15.7414C22.3831 15.5287 22.0315 15.2192 21.774 14.8412L20.64 13.2176C20.385 12.8435 20.038 12.5364 19.6299 12.3239C19.2218 12.1114 18.7656 12.0001 18.302 12H12.8C12.0574 12 11.3452 12.2851 10.8201 12.7925C10.295 13.3 10 13.9882 10 14.7059V32.2941C10 33.0118 10.295 33.7 10.8201 34.2075C11.3452 34.7149 12.0574 35 12.8 35H35.2Z" stroke="white" stroke-width="3" stroke-linecap="round" stroke-linejoin="round"/>
</svg>
