<svg width="24" height="24" viewBox="0 0 24 24" fill="none" xmlns="http://www.w3.org/2000/svg">
<g clip-path="url(#clip0_127_24)">
<path d="M10.2524 17.3184H13.4931V13.2453C13.4931 12.9818 13.3232 12.8106 13.06 12.8106H10.6922C10.4244 12.8106 10.2524 12.9818 10.2524 13.2453V17.3184ZM8.04812 18.0526H15.6698C16.5212 18.0526 17.0232 17.5602 17.0232 16.7291V10.4801L15.9197 9.72273V16.3913C15.9197 16.7487 15.7256 16.9477 15.3789 16.9477H8.33897C7.98762 16.9477 7.79353 16.7487 7.79353 16.3913V9.72736L6.69005 10.4801V16.7291C6.69005 17.5602 7.19099 18.0526 8.04812 18.0526ZM5 11.6854C5 11.9765 5.21876 12.2249 5.57562 12.2249C5.75057 12.2249 5.90647 12.1342 6.04401 12.0211L11.6384 7.32139C11.7897 7.18729 11.9671 7.18729 12.1194 7.32139L17.7108 12.0211C17.8447 12.1342 18.0007 12.2249 18.1756 12.2249C18.4991 12.2249 18.7466 12.0238 18.7466 11.6993C18.7466 11.5088 18.673 11.3615 18.5304 11.2397L12.6681 6.30606C12.1864 5.89798 11.576 5.89798 11.0897 6.30606L5.22079 11.2407C5.07356 11.3625 5 11.5283 5 11.6854ZM15.4321 8.95417L17.0232 10.2949V7.5727C17.0232 7.31847 16.8614 7.1565 16.6075 7.1565H15.8487C15.5995 7.1565 15.4321 7.31847 15.4321 7.5727V8.95417Z" fill="#F5F5F5"/>
</g>
<defs>
<clipPath id="clip0_127_24">
<rect width="14" height="13" fill="white" transform="translate(5 6)"/>
</clipPath>
</defs>
</svg>
