<svg width="24" height="24" viewBox="0 0 24 24" fill="none" xmlns="http://www.w3.org/2000/svg">
<path d="M14 18V12.5265C14 12.345 13.9298 12.171 13.8047 12.0427C13.6797 11.9143 13.5101 11.8423 13.3333 11.8423H10.6667C10.4899 11.8423 10.3203 11.9143 10.1953 12.0427C10.0702 12.171 10 12.345 10 12.5265V18M6 10.4739C5.99995 10.2748 6.04222 10.0782 6.12386 9.89759C6.20549 9.71703 6.32453 9.55692 6.47267 9.42843L11.1393 5.32327C11.38 5.11453 11.6849 5 12 5C12.3151 5 12.62 5.11453 12.8607 5.32327L17.5273 9.42843C17.6755 9.55692 17.7945 9.71703 17.8761 9.89759C17.9578 10.0782 18 10.2748 18 10.4739V16.6316C18 16.9945 17.8595 17.3426 17.6095 17.5992C17.3594 17.8558 17.0203 18 16.6667 18H7.33333C6.97971 18 6.64057 17.8558 6.39052 17.5992C6.14048 17.3426 6 16.9945 6 16.6316V10.4739Z" stroke="#F5F5F5" stroke-width="1.5" stroke-linecap="round" stroke-linejoin="round"/>
</svg>
