<svg width="48" height="48" viewBox="0 0 48 48" fill="none" xmlns="http://www.w3.org/2000/svg">
<path d="M28.125 32.125C28.9534 32.125 29.625 32.7966 29.625 33.625C29.625 34.4534 28.9534 35.125 28.125 35.125H19.875C19.0466 35.125 18.375 34.4534 18.375 33.625C18.375 32.7966 19.0466 32.125 19.875 32.125H28.125ZM32.25 22.5C33.0784 22.5 33.75 23.1716 33.75 24C33.75 24.8284 33.0784 25.5 32.25 25.5H15.75C14.9216 25.5 14.25 24.8284 14.25 24C14.25 23.1716 14.9216 22.5 15.75 22.5H32.25ZM37.75 12.875C38.5784 12.875 39.25 13.5466 39.25 14.375C39.25 15.2034 38.5784 15.875 37.75 15.875H10.25C9.42157 15.875 8.75 15.2034 8.75 14.375C8.75 13.5466 9.42157 12.875 10.25 12.875H37.75Z" fill="white"/>
</svg>
