<svg width="48" height="48" viewBox="0 0 48 48" fill="none" xmlns="http://www.w3.org/2000/svg">
<path d="M24 9.87793C24.8284 9.87795 25.5 10.5495 25.5 11.3779V21.5H35.6221C36.4504 21.5001 37.1221 22.1716 37.1221 23C37.122 23.8284 36.4504 24.4999 35.6221 24.5H25.5V34.6221C25.4999 35.4504 24.8284 36.122 24 36.1221C23.1716 36.1221 22.5001 35.4504 22.5 34.6221V24.5H12.3779C11.5495 24.5 10.878 23.8284 10.8779 23C10.8779 22.1716 11.5495 21.5 12.3779 21.5H22.5V11.3779C22.5 10.5495 23.1716 9.87793 24 9.87793Z" fill="white"/>
</svg>
