<svg width="48" height="48" viewBox="0 0 48 48" fill="none" xmlns="http://www.w3.org/2000/svg">
<path d="M24 8.86328C32.3593 8.86347 39.1356 15.6407 39.1357 24C39.1356 32.3593 32.3593 39.1356 24 39.1357C15.6407 39.1356 8.86347 32.3593 8.86328 24C8.86347 15.6407 15.6407 8.86347 24 8.86328ZM24 11.8633C17.2976 11.8635 11.8635 17.2976 11.8633 24C11.8635 30.7024 17.2976 36.1356 24 36.1357C30.7024 36.1356 36.1356 30.7024 36.1357 24C36.1356 17.2976 30.7024 11.8635 24 11.8633ZM24.0137 29.3184C24.8421 29.3184 25.5137 29.9899 25.5137 30.8184C25.5136 31.6467 24.842 32.3183 24.0137 32.3184H24C23.1716 32.3184 22.5001 31.6467 22.5 30.8184C22.5 29.9899 23.1716 29.3184 24 29.3184H24.0137ZM21.0586 16.4463C22.1968 15.7775 23.5358 15.5327 24.8369 15.7559C26.1379 15.9792 27.3188 16.6561 28.1689 17.666C29.0185 18.6754 29.4838 19.9532 29.4824 21.2725L29.4775 21.4727C29.3828 23.52 27.8471 24.8698 26.7686 25.5889C26.1664 25.9903 25.5747 26.2851 25.1396 26.4785C24.9204 26.5759 24.7353 26.6502 24.6016 26.7012C24.5348 26.7266 24.4793 26.7466 24.4395 26.7607C24.4198 26.7677 24.403 26.7741 24.3906 26.7783C24.3848 26.7803 24.3791 26.7818 24.375 26.7832C24.3733 26.7838 24.3715 26.7847 24.3701 26.7852L24.3672 26.7861H24.3662C24.364 26.7808 24.3354 26.6946 23.8916 25.3633L24.3652 26.7871C23.5795 27.0487 22.7307 26.6235 22.4688 25.8379C22.2231 25.1009 22.5808 24.308 23.2744 23.9961L23.417 23.9404C23.4206 23.9392 23.4268 23.9373 23.4346 23.9346C23.4547 23.9274 23.4886 23.9154 23.5332 23.8984C23.6231 23.8642 23.7575 23.8099 23.9209 23.7373C24.2527 23.5898 24.6843 23.3729 25.1045 23.0928C26.0364 22.4714 26.4824 21.8397 26.4824 21.2725V21.2705C26.4833 20.6588 26.2669 20.0667 25.873 19.5986C25.4791 19.1307 24.932 18.8164 24.3291 18.7129C23.7262 18.6095 23.1055 18.7234 22.5781 19.0332C22.0508 19.3432 21.6503 19.8302 21.4473 20.4072C21.1723 21.1884 20.3155 21.5988 19.5342 21.3242C18.7528 21.0492 18.3423 20.1925 18.6172 19.4111C19.0554 18.1657 19.9204 17.1152 21.0586 16.4463Z" fill="white"/>
</svg>
