<svg width="48" height="48" viewBox="0 0 48 48" fill="none" xmlns="http://www.w3.org/2000/svg">
<path d="M29.7272 10.4951C29.1414 9.90933 28.1909 9.90933 27.6051 10.4951C27.0198 11.0808 27.0197 12.0305 27.6051 12.6162L32.8229 17.833H20.111C18.7905 17.833 17.4823 18.0933 16.2623 18.5986C15.0425 19.1039 13.9342 19.8447 13.0006 20.7783C12.0671 21.7119 11.3263 22.8203 10.8209 24.04C10.3156 25.2599 10.0553 26.5683 10.0553 27.8887C10.0553 29.209 10.3157 30.5165 10.8209 31.7363C11.3262 32.9562 12.067 34.0653 13.0006 34.999C13.9342 35.9326 15.0426 36.6734 16.2623 37.1787C17.4823 37.684 18.7905 37.9443 20.111 37.9443H25.5553C26.3836 37.9442 27.0552 37.2726 27.0553 36.4443C27.0551 35.6161 26.3835 34.9445 25.5553 34.9443H20.111C19.1845 34.9443 18.2667 34.7617 17.4108 34.4072C16.5549 34.0527 15.7768 33.5329 15.1217 32.8779C14.4667 32.2229 13.9469 31.4447 13.5924 30.5889C13.2379 29.733 13.0553 28.8151 13.0553 27.8887C13.0553 26.9622 13.2379 26.0444 13.5924 25.1885C13.947 24.3326 14.4666 23.5545 15.1217 22.8994C15.7768 22.2443 16.5548 21.7247 17.4108 21.3701C18.2667 21.0156 19.1845 20.833 20.111 20.833H32.8229L27.6051 26.0508C27.0198 26.6365 27.0197 27.5862 27.6051 28.1719C28.1909 28.7576 29.1414 28.7575 29.7272 28.1719L37.5045 20.3945C37.5661 20.3329 37.6199 20.2661 37.6686 20.1973C37.6758 20.187 37.684 20.1774 37.691 20.167C37.7057 20.145 37.7186 20.1221 37.7321 20.0996C37.7442 20.0792 37.757 20.0591 37.7682 20.0381C37.808 19.9633 37.8406 19.8858 37.8668 19.8066C37.8706 19.7952 37.875 19.784 37.8785 19.7725C37.8867 19.7457 37.8934 19.7185 37.9 19.6914C37.9053 19.6697 37.9113 19.6481 37.9157 19.626C37.9539 19.4327 37.9539 19.2333 37.9157 19.04C37.9113 19.018 37.9054 18.9963 37.9 18.9746C37.8714 18.858 37.829 18.7441 37.7721 18.6357L37.7633 18.6182C37.7509 18.5954 37.7368 18.5738 37.7233 18.5518C37.7125 18.5342 37.7025 18.5162 37.691 18.499C37.6814 18.4847 37.6709 18.471 37.6608 18.457C37.6142 18.3925 37.5626 18.3305 37.5045 18.2725L29.7272 10.4951Z" fill="white"/>
</svg>
