<svg width="48" height="48" viewBox="0 0 48 48" fill="none" xmlns="http://www.w3.org/2000/svg">
<path d="M11 22.5C11.8284 22.5 12.5 23.1716 12.5 24C12.5 27.05 13.7115 29.9752 15.8682 32.1318C18.0239 34.2876 20.9475 35.498 23.9961 35.499C27.2372 35.4864 30.3477 34.224 32.6807 31.9746L33.1553 31.5H30C29.1716 31.5 28.5 30.8284 28.5 30C28.5 29.1716 29.1716 28.5 30 28.5H36.2168C36.7946 28.1452 37.56 28.2165 38.0605 28.7168C38.3827 29.0389 38.5263 29.4712 38.4941 29.8926C38.4967 29.9281 38.5 29.9638 38.5 30V37C38.5 37.8284 37.8284 38.5 37 38.5C36.1716 38.5 35.5 37.8284 35.5 37V33.3984L34.7959 34.1025C34.7899 34.1085 34.7844 34.1152 34.7783 34.1211C31.8871 36.916 28.0271 38.4848 24.0059 38.5H24C20.1544 38.5 16.4663 36.9722 13.7471 34.2529C11.0278 31.5337 9.5 27.8456 9.5 24C9.5 23.1716 10.1716 22.5 11 22.5ZM24 9.5C27.8456 9.5 31.5337 11.0278 34.2529 13.7471C36.9722 16.4663 38.5 20.1544 38.5 24C38.5 24.8284 37.8284 25.5 37 25.5C36.1716 25.5 35.5 24.8284 35.5 24C35.5 20.95 34.2885 18.0248 32.1318 15.8682C29.9759 13.7122 27.0519 12.5008 24.0029 12.5C20.7622 12.5129 17.6511 13.7752 15.3184 16.0244L14.8428 16.5H18C18.8284 16.5 19.5 17.1716 19.5 18C19.5 18.8284 18.8284 19.5 18 19.5H11.7832C11.2054 19.8548 10.44 19.7835 9.93945 19.2832C9.61709 18.9608 9.47343 18.5281 9.50586 18.1064C9.50339 18.0712 9.5 18.0358 9.5 18V11C9.5 10.1716 10.1716 9.5 11 9.5C11.8284 9.5 12.5 10.1716 12.5 11V14.6006L13.2041 13.8975L13.2217 13.8789C16.1129 11.084 19.9729 9.51518 23.9941 9.5H24Z" fill="white"/>
</svg>
