<svg width="48" height="48" viewBox="0 0 48 48" fill="none" xmlns="http://www.w3.org/2000/svg">
<path d="M24.0654 8.2627C24.724 8.26273 25.3638 8.46856 25.8965 8.84766L26.1182 9.02148L26.1309 9.03223C28.4466 11.0594 31.6403 12.5223 33.9912 12.5225C34.6687 12.5225 35.3217 12.7588 35.8408 13.1846L36.0547 13.3789L36.249 13.5928C36.6741 14.1123 36.9092 14.7655 36.9092 15.4424V25.3809C36.9091 29.3258 35.5119 32.3622 33.2646 34.6709C31.0581 36.9376 28.0985 38.4381 25.042 39.5049L25.0293 39.5088C24.4048 39.7206 23.7274 39.7128 23.1074 39.4902V39.4912C23.1004 39.4888 23.093 39.4858 23.0859 39.4834C23.0819 39.4819 23.0773 39.481 23.0732 39.4795V39.4785C20.0205 38.4194 17.0691 36.927 14.8682 34.6699C12.6183 32.3626 11.2217 29.3256 11.2217 25.3809V15.4424C11.2217 14.669 11.5286 13.9265 12.0752 13.3789L12.29 13.1846C12.8091 12.7588 13.4622 12.5226 14.1396 12.5225L14.3623 12.5186C16.6888 12.4301 19.7689 10.9836 22 9.03223C22.004 9.02874 22.0087 9.02494 22.0127 9.02148C22.5845 8.53229 23.3127 8.2628 24.0654 8.2627ZM24.0654 11.2627C24.0283 11.2628 23.9916 11.2762 23.9629 11.3008C21.3534 13.5786 17.52 15.4892 14.2217 15.5205V25.3809C14.2217 28.5347 15.3071 30.823 17.0166 32.5762C18.6573 34.2585 20.9336 35.507 23.5576 36.4678L24.0879 36.6562L24.0918 36.6572C26.9171 35.6671 29.3738 34.367 31.1152 32.5781C32.8239 30.8227 33.9091 28.5346 33.9092 25.3809V15.5205C30.6121 15.4893 26.7928 13.593 24.168 11.2998V11.3008C24.1392 11.2762 24.1026 11.2627 24.0654 11.2627ZM27.2578 20.0625C27.8431 19.4764 28.7927 19.4754 29.3789 20.0605C29.9648 20.6459 29.9659 21.5955 29.3809 22.1816L23.709 27.8613C23.4277 28.1429 23.0455 28.3008 22.6475 28.3008C22.2494 28.3008 21.8673 28.1429 21.5859 27.8613L18.75 25.0215C18.1648 24.4354 18.166 23.4858 18.752 22.9004C19.3381 22.3152 20.2877 22.3153 20.873 22.9014L22.6475 24.6777L27.2578 20.0625Z" fill="white"/>
</svg>
