<svg width="48" height="48" viewBox="0 0 48 48" fill="none" xmlns="http://www.w3.org/2000/svg">
<path d="M29.7139 29.6426C30.5422 29.6426 31.2137 30.3143 31.2139 31.1426V32.5H36.8564C37.6849 32.5 38.3564 33.1716 38.3564 34C38.3564 34.8284 37.6849 35.5 36.8564 35.5H31.2139V36.8564C31.2139 37.6849 30.5423 38.3564 29.7139 38.3564C28.8856 38.3562 28.2139 37.6847 28.2139 36.8564V31.1426C28.214 30.3144 28.8857 29.6428 29.7139 29.6426ZM24 32.5C24.8283 32.5002 25.5 33.1717 25.5 34C25.5 34.8283 24.8283 35.4998 24 35.5H11.1426C10.3143 35.4998 9.64258 34.8283 9.64258 34C9.64258 33.1717 10.3143 32.5002 11.1426 32.5H24ZM18.2861 19.6426C19.1143 19.6428 19.786 20.3144 19.7861 21.1426V26.8564C19.7861 27.6847 19.1144 28.3562 18.2861 28.3564C17.4577 28.3564 16.7861 27.6849 16.7861 26.8564V25.5H11.1426C10.3143 25.4998 9.64258 24.8283 9.64258 24C9.64258 23.1717 10.3143 22.5002 11.1426 22.5H16.7861V21.1426C16.7863 20.3143 17.4578 19.6426 18.2861 19.6426ZM36.8574 22.5C37.6857 22.5002 38.3574 23.1717 38.3574 24C38.3574 24.8283 37.6857 25.4998 36.8574 25.5H24C23.1716 25.5 22.5 24.8284 22.5 24C22.5 23.1716 23.1716 22.5 24 22.5H36.8574ZM26.8574 9.64258C27.6856 9.64273 28.3573 10.3144 28.3574 11.1426V12.5H36.8574C37.6857 12.5002 38.3574 13.1717 38.3574 14C38.3574 14.8283 37.6857 15.4998 36.8574 15.5H28.3574V16.8564C28.3574 17.6848 27.6857 18.3563 26.8574 18.3564C26.029 18.3564 25.3574 17.6849 25.3574 16.8564V11.1426C25.3576 10.3143 26.0291 9.64258 26.8574 9.64258ZM21.1426 12.5C21.971 12.5 22.6426 13.1716 22.6426 14C22.6426 14.8284 21.971 15.5 21.1426 15.5H11.1426C10.3143 15.4998 9.64258 14.8283 9.64258 14C9.64258 13.1717 10.3143 12.5002 11.1426 12.5H21.1426Z" fill="white"/>
</svg>
