<svg width="48" height="48" viewBox="0 0 48 48" fill="none" xmlns="http://www.w3.org/2000/svg">
<path d="M12.625 20.625C14.3509 20.625 15.75 22.0241 15.75 23.75C15.75 25.4759 14.3509 26.875 12.625 26.875C10.8991 26.875 9.5 25.4759 9.5 23.75C9.5 22.0241 10.8991 20.625 12.625 20.625ZM24 20.625C25.7259 20.625 27.125 22.0241 27.125 23.75C27.125 25.4759 25.7259 26.875 24 26.875C22.2741 26.875 20.875 25.4759 20.875 23.75C20.875 22.0241 22.2741 20.625 24 20.625ZM35.375 20.625C37.1009 20.625 38.5 22.0241 38.5 23.75C38.5 25.4759 37.1009 26.875 35.375 26.875C33.6491 26.875 32.25 25.4759 32.25 23.75C32.25 22.0241 33.6491 20.625 35.375 20.625ZM12.625 23.625C12.556 23.625 12.5 23.681 12.5 23.75C12.5 23.819 12.556 23.875 12.625 23.875C12.694 23.875 12.75 23.819 12.75 23.75C12.75 23.681 12.694 23.625 12.625 23.625ZM24 23.625C23.931 23.625 23.875 23.681 23.875 23.75C23.875 23.819 23.931 23.875 24 23.875C24.069 23.875 24.125 23.819 24.125 23.75C24.125 23.681 24.069 23.625 24 23.625ZM35.375 23.625C35.306 23.625 35.25 23.681 35.25 23.75C35.25 23.819 35.306 23.875 35.375 23.875C35.444 23.875 35.5 23.819 35.5 23.75C35.5 23.681 35.444 23.625 35.375 23.625Z" fill="#F5F5F5"/>
</svg>
