<svg width="48" height="48" viewBox="0 0 48 48" fill="none" xmlns="http://www.w3.org/2000/svg">
<path d="M22.5556 22.8V30M27.4444 22.8V30M33.5556 16.8V33.6C33.5556 34.2365 33.298 34.847 32.8396 35.2971C32.3812 35.7471 31.7594 36 31.1111 36H18.8889C18.2406 36 17.6188 35.7471 17.1604 35.2971C16.702 34.847 16.4444 34.2365 16.4444 33.6V16.8M14 16.8H36M20.1111 16.8V14.4C20.1111 13.7635 20.3687 13.153 20.8271 12.7029C21.2855 12.2529 21.9072 12 22.5556 12H27.4444C28.0928 12 28.7145 12.2529 29.1729 12.7029C29.6313 13.153 29.8889 13.7635 29.8889 14.4V16.8" stroke="#F5F5F5" stroke-width="3" stroke-linecap="round" stroke-linejoin="round"/>
</svg>
