<svg width="48" height="48" viewBox="0 0 48 48" fill="none" xmlns="http://www.w3.org/2000/svg">
<path d="M18.2725 10.4951C18.8582 9.90933 19.8087 9.90933 20.3945 10.4951C20.9798 11.0808 20.9799 12.0305 20.3945 12.6162L15.1768 17.833H27.8887C29.2091 17.833 30.5173 18.0933 31.7373 18.5986C32.9571 19.1039 34.0654 19.8447 34.999 20.7783C35.9326 21.7119 36.6734 22.8203 37.1787 24.04C37.684 25.2599 37.9443 26.5683 37.9443 27.8887C37.9443 29.209 37.6839 30.5165 37.1787 31.7363C36.6734 32.9562 35.9327 34.0653 34.999 34.999C34.0654 35.9326 32.9571 36.6734 31.7373 37.1787C30.5173 37.684 29.2091 37.9443 27.8887 37.9443H22.4443C21.6161 37.9442 20.9445 37.2726 20.9443 36.4443C20.9445 35.6161 21.6161 34.9445 22.4443 34.9443H27.8887C28.8151 34.9443 29.7329 34.7617 30.5889 34.4072C31.4447 34.0527 32.2229 33.5329 32.8779 32.8779C33.5329 32.2229 34.0527 31.4447 34.4072 30.5889C34.7617 29.733 34.9443 28.8151 34.9443 27.8887C34.9443 26.9622 34.7618 26.0444 34.4072 25.1885C34.0527 24.3326 33.533 23.5545 32.8779 22.8994C32.2228 22.2443 31.4448 21.7247 30.5889 21.3701C29.7329 21.0156 28.8151 20.833 27.8887 20.833H15.1768L20.3945 26.0508C20.9798 26.6365 20.98 27.5862 20.3945 28.1719C19.8088 28.7576 18.8583 28.7575 18.2725 28.1719L10.4951 20.3945C10.4335 20.3329 10.3797 20.2661 10.3311 20.1973C10.3238 20.187 10.3156 20.1774 10.3086 20.167C10.2939 20.145 10.281 20.1221 10.2676 20.0996C10.2554 20.0792 10.2427 20.0591 10.2314 20.0381C10.1917 19.9633 10.1591 19.8858 10.1328 19.8066C10.129 19.7952 10.1246 19.784 10.1211 19.7725C10.1129 19.7457 10.1062 19.7185 10.0996 19.6914C10.0943 19.6697 10.0883 19.6481 10.084 19.626C10.0458 19.4327 10.0457 19.2333 10.084 19.04C10.0884 19.018 10.0943 18.9963 10.0996 18.9746C10.1282 18.858 10.1706 18.7441 10.2275 18.6357L10.2363 18.6182C10.2487 18.5954 10.2629 18.5738 10.2764 18.5518C10.2871 18.5342 10.2971 18.5162 10.3086 18.499C10.3182 18.4847 10.3288 18.471 10.3389 18.457C10.3854 18.3925 10.4371 18.3305 10.4951 18.2725L18.2725 10.4951Z" fill="white"/>
</svg>
