<svg width="40" height="40" viewBox="0 0 40 40" fill="none" xmlns="http://www.w3.org/2000/svg">
<rect x="1" y="1" width="38" height="38" rx="11" fill="url(#paint0_linear_741_87)" stroke="#414141" stroke-width="2"/>
<path d="M20.334 12.5957C20.9785 12.5957 21.6165 12.7194 22.248 12.9668C22.8796 13.2142 23.4492 13.6146 23.957 14.168C24.4714 14.7214 24.8815 15.4505 25.1875 16.3555C25.4935 17.2604 25.6465 18.3737 25.6465 19.6953V19.7148C25.6465 21.3099 25.4316 22.6738 25.002 23.8066C24.5723 24.9395 23.9538 25.8086 23.1465 26.4141C22.3392 27.013 21.3626 27.3125 20.2168 27.3125C19.429 27.3125 18.7161 27.1693 18.0781 26.8828C17.4401 26.5898 16.9095 26.1862 16.4863 25.6719C16.0632 25.151 15.7702 24.5456 15.6074 23.8555L15.5781 23.7285H17.3457L17.3848 23.8359C17.528 24.2266 17.7298 24.5651 17.9902 24.8516C18.2572 25.1315 18.5794 25.3496 18.957 25.5059C19.3346 25.6621 19.7611 25.7402 20.2363 25.7402C21.0957 25.7402 21.7923 25.4896 22.3262 24.9883C22.86 24.487 23.2572 23.8229 23.5176 22.9961C23.778 22.1693 23.9245 21.2643 23.957 20.2812C23.9635 20.1966 23.9668 20.1152 23.9668 20.0371C23.9668 19.9525 23.9668 19.8711 23.9668 19.793L23.5469 17.459C23.5469 16.8405 23.4036 16.2839 23.1172 15.7891C22.8372 15.2878 22.4564 14.8906 21.9746 14.5977C21.4928 14.3047 20.9525 14.1582 20.3535 14.1582C19.7676 14.1582 19.2305 14.3014 18.7422 14.5879C18.2604 14.8743 17.8763 15.2617 17.5898 15.75C17.3034 16.2383 17.1602 16.7884 17.1602 17.4004V17.4199C17.1602 18.0384 17.2969 18.5918 17.5703 19.0801C17.8438 19.5618 18.2181 19.9395 18.6934 20.2129C19.1751 20.4863 19.7188 20.623 20.3242 20.623C20.9362 20.623 21.4831 20.4896 21.9648 20.2227C22.4531 19.9492 22.8372 19.5749 23.1172 19.0996C23.4036 18.6178 23.5469 18.0742 23.5469 17.4688V17.459H24.123V19.959H23.8105C23.6413 20.3496 23.3776 20.7142 23.0195 21.0527C22.668 21.3848 22.2383 21.6517 21.7305 21.8535C21.2292 22.0553 20.6595 22.1562 20.0215 22.1562C19.1426 22.1562 18.3516 21.9544 17.6484 21.5508C16.9518 21.1406 16.4017 20.5807 15.998 19.8711C15.5944 19.1549 15.3926 18.3509 15.3926 17.459V17.4395C15.3926 16.502 15.6042 15.6686 16.0273 14.9395C16.457 14.2103 17.043 13.6374 17.7852 13.2207C18.5339 12.804 19.3835 12.5957 20.334 12.5957Z" fill="white"/>
<defs>
<linearGradient id="paint0_linear_741_87" x1="20" y1="40" x2="20" y2="0" gradientUnits="userSpaceOnUse">
<stop stop-color="#292929"/>
<stop offset="0.639423" stop-color="#1D1D1D"/>
</linearGradient>
</defs>
</svg>
