<svg width="40" height="40" viewBox="0 0 40 40" fill="none" xmlns="http://www.w3.org/2000/svg">
<rect x="1" y="1" width="38" height="38" rx="11" fill="url(#paint0_linear_741_69)" stroke="#414141" stroke-width="2"/>
<path d="M22.1211 27V24.0801H15.207V22.4785C15.5977 21.8405 15.9915 21.196 16.3887 20.5449C16.7923 19.8939 17.196 19.2428 17.5996 18.5918C18.0098 17.9408 18.4199 17.2962 18.8301 16.6582C19.2402 16.0137 19.6504 15.3789 20.0605 14.7539C20.4707 14.1224 20.8743 13.5072 21.2715 12.9082H23.8398V22.5078H25.832V24.0801H23.8398V27H22.1211ZM16.9844 22.5176H22.1309V14.5098H22.0234C21.6979 14.998 21.3659 15.5026 21.0273 16.0234C20.6953 16.5378 20.3568 17.0618 20.0117 17.5957C19.6667 18.1296 19.3216 18.6667 18.9766 19.207C18.638 19.7474 18.2995 20.2878 17.9609 20.8281C17.6289 21.362 17.3034 21.8926 16.9844 22.4199V22.5176Z" fill="white"/>
<defs>
<linearGradient id="paint0_linear_741_69" x1="20" y1="40" x2="20" y2="0" gradientUnits="userSpaceOnUse">
<stop stop-color="#292929"/>
<stop offset="0.639423" stop-color="#1D1D1D"/>
</linearGradient>
</defs>
</svg>
