<svg width="40" height="40" viewBox="0 0 40 40" fill="none" xmlns="http://www.w3.org/2000/svg">
<rect x="1" y="1" width="38" height="38" rx="11" fill="url(#paint0_linear_741_73)" stroke="#414141" stroke-width="2"/>
<path d="M20.5488 27.3125C19.6699 27.3125 18.8854 27.14 18.1953 26.7949C17.5117 26.4499 16.9616 25.9779 16.5449 25.3789C16.1283 24.7799 15.8841 24.1061 15.8125 23.3574L15.8027 23.25H17.502L17.5117 23.3281C17.5703 23.7773 17.7363 24.1875 18.0098 24.5586C18.2832 24.9297 18.638 25.2227 19.0742 25.4375C19.5169 25.6523 20.015 25.7598 20.5684 25.7598C21.1934 25.7598 21.7435 25.623 22.2188 25.3496C22.7005 25.0697 23.0749 24.6855 23.3418 24.1973C23.6152 23.709 23.752 23.1491 23.752 22.5176V22.498C23.752 21.8796 23.6152 21.3294 23.3418 20.8477C23.0684 20.3594 22.694 19.9785 22.2188 19.7051C21.75 19.4316 21.2096 19.2949 20.5977 19.2949C20.1289 19.2949 19.696 19.3665 19.2988 19.5098C18.9017 19.653 18.5469 19.8678 18.2344 20.1543C18.1107 20.2715 17.9935 20.3984 17.8828 20.5352C17.7786 20.6719 17.681 20.8249 17.5898 20.9941H16.0566L16.7988 12.9082H24.6895V14.4805H18.1953L17.7168 19.2363H17.8438C18.0586 18.9173 18.319 18.6504 18.625 18.4355C18.9375 18.2207 19.2858 18.0579 19.6699 17.9473C20.0605 17.8301 20.4707 17.7715 20.9004 17.7715C21.7923 17.7715 22.5801 17.9766 23.2637 18.3867C23.9538 18.7904 24.4941 19.347 24.8848 20.0566C25.2819 20.7598 25.4805 21.5638 25.4805 22.4688V22.4883C25.4805 23.4323 25.2689 24.2689 24.8457 24.998C24.4225 25.7207 23.8398 26.2871 23.0977 26.6973C22.362 27.1074 21.5124 27.3125 20.5488 27.3125Z" fill="white"/>
<defs>
<linearGradient id="paint0_linear_741_73" x1="20" y1="40" x2="20" y2="0" gradientUnits="userSpaceOnUse">
<stop stop-color="#292929"/>
<stop offset="0.639423" stop-color="#1D1D1D"/>
</linearGradient>
</defs>
</svg>
