<svg width="40" height="40" viewBox="0 0 40 40" fill="none" xmlns="http://www.w3.org/2000/svg">
<rect x="1" y="1" width="38" height="38" rx="11" fill="url(#paint0_linear_741_90)" stroke="#414141" stroke-width="2"/>
<path d="M14.3113 27V14.8418H14.1844L10.5613 17.4395V15.6035L14.3113 12.9082H16.0594V27H14.3113ZM24.3703 27.3125C23.3221 27.3125 22.4237 27.013 21.675 26.4141C20.9328 25.8151 20.3599 24.9655 19.9563 23.8652C19.5591 22.765 19.3605 21.4629 19.3605 19.959V19.9395C19.3605 18.4355 19.5591 17.1367 19.9563 16.043C20.3599 14.9427 20.9328 14.0931 21.675 13.4941C22.4237 12.8952 23.3221 12.5957 24.3703 12.5957C25.425 12.5957 26.3267 12.8952 27.0754 13.4941C27.8241 14.0931 28.4003 14.9427 28.8039 16.043C29.2076 17.1367 29.4094 18.4355 29.4094 19.9395V19.959C29.4094 21.4629 29.2076 22.765 28.8039 23.8652C28.4003 24.9655 27.8241 25.8151 27.0754 26.4141C26.3267 27.013 25.425 27.3125 24.3703 27.3125ZM24.3703 25.7793C25.0604 25.7793 25.6464 25.5417 26.1281 25.0664C26.6164 24.5911 26.9908 23.9206 27.2512 23.0547C27.5116 22.1823 27.6418 21.1504 27.6418 19.959V19.9395C27.6418 18.748 27.5116 17.7194 27.2512 16.8535C26.9908 15.9876 26.6164 15.3203 26.1281 14.8516C25.6464 14.3763 25.0604 14.1387 24.3703 14.1387C23.6932 14.1387 23.1105 14.3763 22.6223 14.8516C22.1405 15.3203 21.7694 15.9876 21.509 16.8535C21.2551 17.7194 21.1281 18.748 21.1281 19.9395V19.959C21.1281 21.1504 21.2551 22.1823 21.509 23.0547C21.7694 23.9206 22.1405 24.5911 22.6223 25.0664C23.1105 25.5417 23.6932 25.7793 24.3703 25.7793Z" fill="white"/>
<defs>
<linearGradient id="paint0_linear_741_90" x1="20" y1="40" x2="20" y2="0" gradientUnits="userSpaceOnUse">
<stop stop-color="#292929"/>
<stop offset="0.639423" stop-color="#1D1D1D"/>
</linearGradient>
</defs>
</svg>
