<svg width="40" height="40" viewBox="0 0 40 40" fill="none" xmlns="http://www.w3.org/2000/svg">
<rect x="1" y="1" width="38" height="38" rx="11" fill="url(#paint0_linear_741_83)" stroke="#414141" stroke-width="2"/>
<path d="M20.5 27.2344C19.5039 27.2344 18.6217 27.0618 17.8535 26.7168C17.0853 26.3717 16.4798 25.8965 16.0371 25.291C15.6009 24.679 15.3828 23.9792 15.3828 23.1914V23.1719C15.3828 22.5924 15.5098 22.0553 15.7637 21.5605C16.0176 21.0658 16.3724 20.6458 16.8281 20.3008C17.2839 19.9492 17.8112 19.7051 18.4102 19.5684V19.5293C17.6419 19.2884 17.0299 18.8913 16.5742 18.3379C16.1185 17.7845 15.8906 17.1367 15.8906 16.3945V16.375C15.8906 15.6654 16.0892 15.0339 16.4863 14.4805C16.8835 13.9206 17.4303 13.4811 18.127 13.1621C18.8236 12.8366 19.6146 12.6738 20.5 12.6738C21.3919 12.6738 22.1829 12.8366 22.873 13.1621C23.5697 13.4811 24.1165 13.9206 24.5137 14.4805C24.9108 15.0339 25.1094 15.6654 25.1094 16.375V16.3945C25.1094 17.1367 24.8815 17.7845 24.4258 18.3379C23.9766 18.8913 23.3646 19.2884 22.5898 19.5293V19.5684C23.1953 19.7051 23.7227 19.9492 24.1719 20.3008C24.6276 20.6458 24.9824 21.0658 25.2363 21.5605C25.4902 22.0553 25.6172 22.5924 25.6172 23.1719V23.1914C25.6172 23.9792 25.3991 24.679 24.9629 25.291C24.5267 25.8965 23.9212 26.3717 23.1465 26.7168C22.3783 27.0618 21.4961 27.2344 20.5 27.2344ZM20.5 25.7012C21.151 25.7012 21.724 25.5905 22.2188 25.3691C22.7201 25.1413 23.1139 24.832 23.4004 24.4414C23.6868 24.0443 23.8301 23.5918 23.8301 23.084V23.0645C23.8301 22.5501 23.6868 22.0944 23.4004 21.6973C23.1204 21.3001 22.7298 20.9876 22.2285 20.7598C21.7272 20.5319 21.151 20.418 20.5 20.418C19.849 20.418 19.2728 20.5319 18.7715 20.7598C18.2702 20.9876 17.8763 21.3001 17.5898 21.6973C17.3099 22.0944 17.1699 22.5501 17.1699 23.0645V23.084C17.1699 23.5918 17.3132 24.0443 17.5996 24.4414C17.8861 24.832 18.2799 25.1413 18.7812 25.3691C19.2826 25.5905 19.8555 25.7012 20.5 25.7012ZM20.5 18.875C21.0664 18.875 21.5645 18.7773 21.9941 18.582C22.4238 18.3802 22.7591 18.1035 23 17.752C23.2409 17.4004 23.3613 16.9967 23.3613 16.541V16.5215C23.3613 16.0658 23.2409 15.6621 23 15.3105C22.7591 14.959 22.4238 14.6855 21.9941 14.4902C21.5645 14.2884 21.0664 14.1875 20.5 14.1875C19.9336 14.1875 19.4355 14.2884 19.0059 14.4902C18.5762 14.6855 18.2409 14.959 18 15.3105C17.7591 15.6621 17.6387 16.0658 17.6387 16.5215V16.541C17.6387 16.9967 17.7591 17.4004 18 17.752C18.2409 18.1035 18.5762 18.3802 19.0059 18.582C19.4355 18.7773 19.9336 18.875 20.5 18.875Z" fill="white"/>
<defs>
<linearGradient id="paint0_linear_741_83" x1="20" y1="40" x2="20" y2="0" gradientUnits="userSpaceOnUse">
<stop stop-color="#292929"/>
<stop offset="0.639423" stop-color="#1D1D1D"/>
</linearGradient>
</defs>
</svg>
