<svg width="40" height="40" viewBox="0 0 40 40" fill="none" xmlns="http://www.w3.org/2000/svg">
<rect x="1" y="1" width="38" height="38" rx="11" fill="url(#paint0_linear_741_66)" stroke="#414141" stroke-width="2"/>
<path d="M20.5586 27.2344C19.5885 27.2344 18.7422 27.0684 18.0195 26.7363C17.2969 26.4043 16.724 25.9486 16.3008 25.3691C15.8841 24.7897 15.6432 24.1289 15.5781 23.3867L15.5684 23.2695H17.2578L17.2676 23.3672C17.3197 23.8294 17.4857 24.2363 17.7656 24.5879C18.0521 24.9395 18.4329 25.2161 18.9082 25.418C19.3835 25.6133 19.9336 25.7109 20.5586 25.7109C21.1771 25.7109 21.7174 25.6035 22.1797 25.3887C22.6484 25.1738 23.013 24.8776 23.2734 24.5C23.5339 24.1159 23.6641 23.6764 23.6641 23.1816V23.1621C23.6641 22.2962 23.3743 21.6322 22.7949 21.1699C22.222 20.7012 21.4408 20.4668 20.4512 20.4668H18.6836V18.9824H20.373C20.9329 18.9824 21.4277 18.8783 21.8574 18.6699C22.2871 18.4551 22.6224 18.1654 22.8633 17.8008C23.1042 17.4297 23.2246 17.0098 23.2246 16.541V16.5215C23.2246 16.0267 23.1204 15.6068 22.9121 15.2617C22.7038 14.9167 22.3978 14.653 21.9941 14.4707C21.597 14.2884 21.112 14.1973 20.5391 14.1973C19.9857 14.1973 19.4909 14.2917 19.0547 14.4805C18.625 14.6628 18.2799 14.9264 18.0195 15.2715C17.7591 15.6165 17.6029 16.0267 17.5508 16.502L17.541 16.5996H15.8516L15.8613 16.502C15.9395 15.7337 16.1803 15.0632 16.584 14.4902C16.9941 13.9173 17.5345 13.4714 18.2051 13.1523C18.8822 12.8333 19.6602 12.6738 20.5391 12.6738C21.4375 12.6738 22.2188 12.8301 22.8828 13.1426C23.5534 13.4486 24.071 13.875 24.4355 14.4219C24.8066 14.9622 24.9922 15.5905 24.9922 16.3066V16.3262C24.9922 16.9056 24.8652 17.4199 24.6113 17.8691C24.3574 18.3184 24.0059 18.6927 23.5566 18.9922C23.1074 19.2917 22.5898 19.5033 22.0039 19.627V19.666C23.0326 19.7507 23.8626 20.099 24.4941 20.7109C25.1322 21.3164 25.4512 22.1204 25.4512 23.123V23.1426C25.4512 23.9238 25.2396 24.6237 24.8164 25.2422C24.3932 25.8607 23.8138 26.349 23.0781 26.707C22.3424 27.0586 21.5026 27.2344 20.5586 27.2344Z" fill="white"/>
<defs>
<linearGradient id="paint0_linear_741_66" x1="20" y1="40" x2="20" y2="0" gradientUnits="userSpaceOnUse">
<stop stop-color="#292929"/>
<stop offset="0.639423" stop-color="#1D1D1D"/>
</linearGradient>
</defs>
</svg>
