<svg width="230" height="230" viewBox="0 0 230 230" fill="none" xmlns="http://www.w3.org/2000/svg">
<path d="M170.728 44.5461C172.384 44.5461 173.728 45.8893 173.728 47.5461V74.5461H215.454C223.286 74.5461 229.637 80.8955 229.637 88.7278V155.819C229.637 163.651 223.286 170 215.454 170H173.728V227.001C173.727 228.658 172.384 230.001 170.728 230.001C169.071 230.001 167.728 228.657 167.728 227V170H159.566C159.553 170 159.539 170 159.525 170H61.9092V227.001C61.9089 228.658 60.5659 230.001 58.9092 230.001C57.2523 230.001 55.9092 228.657 55.9092 227V170H14.1816C6.34943 170 4.74189e-05 163.651 0 155.819V88.7278C9.5869e-05 80.8956 6.34946 74.5463 14.1816 74.5461H55.9092V47.5461C55.9092 45.8893 57.2523 44.5461 58.9092 44.5461C60.566 44.5461 61.9092 45.8893 61.9092 47.5461V74.5461H167.728V47.5461C167.728 45.8893 169.071 44.5461 170.728 44.5461ZM6.67871 85.4641C6.24315 86.4641 6.00002 87.5675 6 88.7278V155.819C6.00005 160.337 9.66314 164 14.1816 164H85.2139L6.67871 85.4641ZM160.788 164H215.454C216.613 164 217.716 163.757 218.715 163.323L135.939 80.5461H77.333L160.788 164ZM14.1816 80.5461C13.0226 80.5462 11.92 80.7873 10.9209 81.2219L93.7002 164H152.302L68.8486 80.5461H14.1816ZM222.959 159.08C223.394 158.081 223.637 156.978 223.637 155.819V88.7278C223.637 84.2092 219.973 80.5461 215.454 80.5461H144.424L222.959 159.08Z" fill="white"/>
<mask id="mask0_778_82" style="mask-type:alpha" maskUnits="userSpaceOnUse" x="32" y="0" width="141" height="79">
<rect x="32" width="141" height="79" fill="#D9D9D9"/>
</mask>
<g mask="url(#mask0_778_82)">
<path d="M114.518 9C137.714 9 156.518 27.804 156.518 51C156.518 74.196 137.714 93 114.518 93C91.3216 93 72.5176 74.196 72.5176 51C72.5176 27.804 91.3216 9 114.518 9ZM114.518 15C94.6353 15 78.5176 31.1177 78.5176 51C78.5176 70.8822 94.6353 87 114.518 87C134.4 87 150.518 70.8822 150.518 51C150.518 31.1177 134.4 15 114.518 15ZM114.518 25C116.174 25 117.518 26.3431 117.518 28V51.25C117.518 52.3999 116.86 53.4489 115.825 53.9502L99.8252 61.7002C98.3341 62.4223 96.5396 61.7987 95.8174 60.3076C95.0953 58.8165 95.7189 57.022 97.21 56.2998L111.518 49.3691V28C111.518 26.3431 112.861 25 114.518 25Z" fill="white"/>
</g>
</svg>
