<svg width="427" height="279" viewBox="0 0 427 279" fill="none" xmlns="http://www.w3.org/2000/svg">
<path d="M150.788 85.2148C150.843 88.0583 151.655 90.8357 153.141 93.2608C153.737 94.231 154.053 94.8987 154.076 96.0367C154.099 97.1747 153.817 98.2982 153.261 99.2914C152.705 100.285 151.894 101.112 150.912 101.687C149.93 102.262 148.812 102.565 147.674 102.565L132.447 102.561H117M150.788 85.2148C150.732 82.3713 151.41 79.142 152.8 76.6607C154.19 74.1795 156.226 72.0914 158.68 70.6537M150.788 85.2148C150.731 82.3714 151.422 79.122 152.812 76.6404C154.201 74.1588 156.227 72.0922 158.68 70.6537M185.879 3L201.107 3.00396L215.532 3.00677L230.981 3.00978L299.638 3.0072C301.666 3.00707 303.675 3.40655 305.55 4.18285C307.424 4.95914 309.127 6.09705 310.562 7.53158C311.996 8.96611 313.134 10.6692 313.91 12.5435C314.687 14.4179 315.086 16.4268 315.086 18.4556L315.083 87.1118C315.083 89.1407 314.684 91.1496 313.907 93.024C313.131 94.8984 311.993 96.6016 310.558 98.0362C309.124 99.4709 307.42 100.609 305.546 101.385C303.672 102.162 301.663 102.561 299.634 102.561L284.402 102.562C283.264 102.563 282.146 102.26 281.164 101.684C280.182 101.109 279.371 100.282 278.815 99.289C278.259 98.2959 277.978 97.1724 278.001 96.0344C278.024 94.8964 278.35 93.785 278.945 92.8149C280.431 90.3898 281.243 87.6125 281.299 84.7691C281.354 81.9257 280.651 79.1189 279.261 76.6379C277.871 74.1568 275.845 72.0911 273.391 70.6535C270.937 69.2159 268.145 68.4584 265.301 68.459C262.457 68.4596 259.664 69.2182 257.211 70.6568C254.758 72.0954 252.732 74.1619 251.343 76.6435C249.953 79.1252 249.251 81.9322 249.307 84.7756C249.363 87.619 250.176 90.396 251.663 92.8205C252.258 93.7905 252.584 94.9019 252.607 96.0399C252.629 97.1779 252.348 98.3014 251.792 99.2945C251.236 100.288 250.425 101.115 249.443 101.69C248.461 102.265 247.343 102.568 246.205 102.568L230.978 102.564L201.103 102.558H185.655C184.516 102.559 183.399 102.256 182.416 101.68C181.434 101.105 180.623 100.278 180.067 99.2849C179.511 98.2917 179.23 97.1682 179.253 96.0302C179.276 94.8921 179.602 93.7808 180.197 92.8106C181.684 90.386 182.724 88.0636 182.781 85.2201C182.837 82.3766 182.119 79.1164 180.73 76.6347C179.341 74.153 177.314 72.0889 174.86 70.6504C172.407 69.2118 169.614 68.4563 166.77 68.4559C163.926 68.4554 161.134 69.2159 158.68 70.6537M216.549 71.8814C216.549 70.7693 216.864 69.6029 217.426 68.6433M185.879 3.00654H132.45C130.422 3.00656 128.413 3.40619 126.538 4.18263C124.664 4.95907 122.961 6.0971 121.526 7.53173C120.091 8.96637 118.953 10.6695 118.177 12.5439C117.401 14.4183 117.001 16.4273 117.001 18.4561L116.998 86.9992L117 102.561L117.002 118.458L117.002 187.117C117.001 189.146 117.401 191.155 118.177 193.029C118.954 194.903 120.092 196.607 121.526 198.041C122.961 199.476 124.664 200.614 126.539 201.39C128.413 202.167 130.422 202.566 132.451 202.566L201.11 202.566C203.139 202.566 205.148 202.167 207.022 201.39C208.897 200.614 210.6 199.476 212.035 198.041C213.469 196.607 214.607 194.903 215.384 193.029C216.16 191.155 216.56 189.146 216.559 187.117L216.564 171.889C216.565 170.751 216.262 169.633 215.686 168.651C215.111 167.668 214.284 166.858 213.291 166.301C212.297 165.745 211.174 165.464 210.036 165.487C208.898 165.51 207.787 165.836 206.816 166.431C204.392 167.918 201.615 168.731 198.771 168.787C195.928 168.844 193.12 168.141 190.639 166.752C188.157 165.363 186.091 163.337 184.652 160.884C183.214 158.43 182.455 155.638 182.455 152.794C182.454 149.95 183.212 147.157 184.649 144.703C186.087 142.249 188.153 140.223 190.634 138.833C193.115 137.443 195.922 136.739 198.766 136.794C201.609 136.85 204.387 137.662 206.812 139.148C207.782 139.743 208.893 140.069 210.031 140.092C211.169 140.115 212.293 139.834 213.286 139.278C214.279 138.722 215.106 137.911 215.682 136.928C216.257 135.946 216.56 134.829 216.559 133.69V118.458L216.553 87.1087L216.549 71.8814M216.549 71.8814C216.548 70.7432 216.851 69.6254 217.426 68.6433M217.426 68.6433C218.002 67.6612 218.833 66.8528 219.827 66.2968C220.82 65.7408 221.943 65.4597 223.081 65.4826C224.219 65.5054 225.331 65.8314 226.301 66.4268C228.726 67.9125 231.503 68.725 234.346 68.7805C237.19 68.836 239.997 68.1326 242.478 66.7427C244.959 65.3528 247.024 63.3266 248.462 60.8729C249.9 58.4191 249.791 55.6327 249.79 52.7888M217.426 68.6433C218.002 67.6611 218.829 66.8501 219.822 66.294C220.815 65.7379 221.939 65.4568 223.077 65.4795C224.215 65.5023 225.326 65.8282 226.296 66.4236C228.721 67.9099 231.498 68.7231 234.341 68.7794C237.184 68.8356 239.991 68.1328 242.473 66.7436C244.955 65.3543 247.021 63.3287 248.46 60.8753C249.898 58.4219 249.79 55.6327 249.79 52.7888M249.79 52.7888C249.79 49.9448 249.034 47.1518 247.596 44.6984C246.157 42.245 244.093 40.2179 241.611 38.8286C239.13 37.4393 237.183 36.7325 234.34 36.7887C231.497 36.845 228.72 37.6581 226.295 39.1444C225.325 39.7398 223.353 40.0659 222.215 40.0887C221.077 40.1115 219.954 39.8306 218.96 39.2745C217.967 38.7184 217.264 38.2356 216.689 37.2535C216.114 36.2714 215.536 34.8249 215.536 33.6866L215.532 18.4594V3.00677" stroke="#F5F5F5" stroke-width="6" stroke-linecap="round" stroke-linejoin="round"/>
<path d="M344.032 244.359L358.729 248.359C360.687 248.892 362.73 249.034 364.743 248.777C366.755 248.521 368.698 247.87 370.459 246.862C372.22 245.855 373.765 244.511 375.007 242.906C376.248 241.301 377.162 239.468 377.695 237.51L381.691 222.817L391.73 185.963L395.732 171.266C396.265 169.308 396.407 167.265 396.15 165.252C395.894 163.24 395.243 161.298 394.236 159.537C393.228 157.776 391.884 156.231 390.279 154.989C388.675 153.748 386.841 152.835 384.884 152.302L370.192 148.298C369.094 147.999 368.361 146.437 367.564 145.624C366.768 144.81 366.202 143.8 365.927 142.695C365.651 141.591 365.675 140.433 365.996 139.341C366.317 138.249 366.923 137.262 367.752 136.482C369.823 134.533 371.337 132.068 372.139 129.339C372.94 126.61 372.999 123.717 372.31 120.958C371.622 118.198 370.21 115.672 368.221 113.64C366.231 111.607 363.736 110.142 360.992 109.394C358.249 108.646 355.355 108.644 352.61 109.386C349.865 110.129 347.367 111.59 345.374 113.619C343.381 115.648 341.965 118.171 341.272 120.929C340.579 123.687 340.633 126.58 341.43 129.311C341.749 130.403 341.772 131.561 341.495 132.665C341.218 133.769 340.652 134.779 339.854 135.592C339.057 136.404 338.057 136.989 336.959 137.286C335.86 137.583 334.433 138.569 333.335 138.27L318.638 134.27C316.68 133.737 314.637 133.595 312.624 133.852C310.612 134.109 308.669 134.759 306.908 135.767C305.147 136.774 303.602 138.118 302.36 139.723C301.119 141.328 300.205 143.161 299.672 145.119L295.676 159.812C295.378 160.911 294.792 161.91 293.979 162.706C293.165 163.503 292.155 164.068 291.05 164.344C289.946 164.619 288.788 164.595 287.696 164.275C286.604 163.954 285.617 163.347 284.837 162.518C282.889 160.447 280.423 158.933 277.694 158.132C274.965 157.331 272.072 157.271 269.313 157.96C266.553 158.649 264.027 160.06 261.995 162.05C259.962 164.039 258.497 166.534 257.749 169.278C257.002 172.022 256.999 174.915 257.741 177.661C258.484 180.406 259.945 182.903 261.974 184.896C264.003 186.889 266.526 188.305 269.284 188.998C272.042 189.692 274.935 189.637 277.666 188.841C278.758 188.521 279.916 188.499 281.02 188.775C282.124 189.052 283.134 189.619 283.947 190.416C284.759 191.213 285.344 192.213 285.641 193.312C285.938 194.41 285.937 195.568 285.637 196.667L281.635 211.363C281.102 213.321 280.96 215.364 281.217 217.377C281.474 219.389 282.124 221.331 283.131 223.092C284.139 224.853 285.483 226.399 287.088 227.64C288.692 228.881 290.526 229.794 292.483 230.327L307.175 234.331L344.031 244.364" stroke="#F5F5F5" stroke-width="6" stroke-linecap="round" stroke-linejoin="round"/>
</svg>
