<svg width="436" height="279" viewBox="0 0 436 279" fill="none" xmlns="http://www.w3.org/2000/svg">
<path d="M159.788 85.2148C159.843 88.0583 160.655 90.8357 162.141 93.2608C162.737 94.231 163.053 94.8987 163.076 96.0367C163.099 97.1747 162.817 98.2982 162.261 99.2914C161.705 100.285 160.894 101.112 159.912 101.687C158.93 102.262 157.812 102.565 156.674 102.565L141.447 102.561H126M159.788 85.2148C159.732 82.3713 160.41 79.142 161.8 76.6607C163.19 74.1795 165.226 72.0914 167.68 70.6537M159.788 85.2148C159.731 82.3714 160.422 79.122 161.812 76.6404C163.201 74.1588 165.227 72.0922 167.68 70.6537M194.879 3L210.107 3.00396L224.532 3.00677L239.981 3.00978L308.638 3.0072C310.666 3.00707 312.675 3.40655 314.55 4.18285C316.424 4.95914 318.127 6.09705 319.562 7.53158C320.996 8.96611 322.134 10.6692 322.91 12.5435C323.687 14.4179 324.086 16.4268 324.086 18.4556L324.083 87.1118C324.083 89.1407 323.684 91.1496 322.907 93.024C322.131 94.8984 320.993 96.6016 319.558 98.0362C318.124 99.4709 316.42 100.609 314.546 101.385C312.672 102.162 310.663 102.561 308.634 102.561L293.402 102.562C292.264 102.563 291.146 102.26 290.164 101.684C289.182 101.109 288.371 100.282 287.815 99.289C287.259 98.2959 286.978 97.1724 287.001 96.0344C287.024 94.8964 287.35 93.785 287.945 92.8149C289.431 90.3898 290.243 87.6125 290.299 84.7691C290.354 81.9257 289.651 79.1189 288.261 76.6379C286.871 74.1568 284.845 72.0911 282.391 70.6535C279.937 69.2159 277.145 68.4584 274.301 68.459C271.457 68.4596 268.664 69.2182 266.211 70.6568C263.758 72.0954 261.732 74.1619 260.343 76.6435C258.953 79.1252 258.251 81.9322 258.307 84.7756C258.363 87.619 259.176 90.396 260.663 92.8205C261.258 93.7905 261.584 94.9019 261.607 96.0399C261.629 97.1779 261.348 98.3014 260.792 99.2945C260.236 100.288 259.425 101.115 258.443 101.69C257.461 102.265 256.343 102.568 255.205 102.568L239.978 102.564L210.103 102.558H194.655C193.516 102.559 192.399 102.256 191.416 101.68C190.434 101.105 189.623 100.278 189.067 99.2849C188.511 98.2917 188.23 97.1682 188.253 96.0302C188.276 94.8921 188.602 93.7808 189.197 92.8106C190.684 90.386 191.724 88.0636 191.781 85.2201C191.837 82.3766 191.119 79.1164 189.73 76.6347C188.341 74.153 186.314 72.0889 183.86 70.6504C181.407 69.2118 178.614 68.4563 175.77 68.4559C172.926 68.4554 170.134 69.2159 167.68 70.6537M225.549 71.8814C225.549 70.7693 225.864 69.6029 226.426 68.6433M194.879 3.00654H141.45C139.422 3.00656 137.413 3.40619 135.538 4.18263C133.664 4.95907 131.961 6.0971 130.526 7.53173C129.091 8.96637 127.953 10.6695 127.177 12.5439C126.401 14.4183 126.001 16.4273 126.001 18.4561L125.998 86.9992L126 102.561L126.002 118.458L126.002 187.117C126.001 189.146 126.401 191.155 127.177 193.029C127.954 194.903 129.092 196.607 130.526 198.041C131.961 199.476 133.664 200.614 135.539 201.39C137.413 202.167 139.422 202.566 141.451 202.566L210.11 202.566C212.139 202.566 214.148 202.167 216.022 201.39C217.897 200.614 219.6 199.476 221.035 198.041C222.469 196.607 223.607 194.903 224.384 193.029C225.16 191.155 225.56 189.146 225.559 187.117L225.564 171.889C225.565 170.751 225.262 169.633 224.686 168.651C224.111 167.668 223.284 166.858 222.291 166.301C221.297 165.745 220.174 165.464 219.036 165.487C217.898 165.51 216.787 165.836 215.816 166.431C213.392 167.918 210.615 168.731 207.771 168.787C204.928 168.844 202.12 168.141 199.639 166.752C197.157 165.363 195.091 163.337 193.652 160.884C192.214 158.43 191.455 155.638 191.455 152.794C191.454 149.95 192.212 147.157 193.649 144.703C195.087 142.249 197.153 140.223 199.634 138.833C202.115 137.443 204.922 136.739 207.766 136.794C210.609 136.85 213.387 137.662 215.812 139.148C216.782 139.743 217.893 140.069 219.031 140.092C220.169 140.115 221.293 139.834 222.286 139.278C223.279 138.722 224.106 137.911 224.682 136.928C225.257 135.946 225.56 134.829 225.559 133.69V118.458L225.553 87.1087L225.549 71.8814M225.549 71.8814C225.548 70.7432 225.851 69.6254 226.426 68.6433M226.426 68.6433C227.002 67.6612 227.833 66.8528 228.827 66.2968C229.82 65.7408 230.943 65.4597 232.081 65.4826C233.219 65.5054 234.331 65.8314 235.301 66.4268C237.726 67.9125 240.503 68.725 243.346 68.7805C246.19 68.836 248.997 68.1326 251.478 66.7427C253.959 65.3528 256.024 63.3266 257.462 60.8729C258.9 58.4191 258.791 55.6327 258.79 52.7888M226.426 68.6433C227.002 67.6611 227.829 66.8501 228.822 66.294C229.815 65.7379 230.939 65.4568 232.077 65.4795C233.215 65.5023 234.326 65.8282 235.296 66.4236C237.721 67.9099 240.498 68.7231 243.341 68.7794C246.184 68.8356 248.991 68.1328 251.473 66.7436C253.955 65.3543 256.021 63.3287 257.46 60.8753C258.898 58.4219 258.79 55.6327 258.79 52.7888M258.79 52.7888C258.79 49.9448 258.034 47.1518 256.596 44.6984C255.157 42.245 253.093 40.2179 250.611 38.8286C248.13 37.4393 246.183 36.7325 243.34 36.7887C240.497 36.845 237.72 37.6581 235.295 39.1444C234.325 39.7398 232.353 40.0659 231.215 40.0887C230.077 40.1115 228.954 39.8306 227.96 39.2745C226.967 38.7184 226.264 38.2356 225.689 37.2535C225.114 36.2714 224.536 34.8249 224.536 33.6866L224.532 18.4594V3.00677" stroke="#F5F5F5" stroke-width="6" stroke-linecap="round" stroke-linejoin="round"/>
<path d="M353.032 244.359L367.729 248.359C369.687 248.892 371.73 249.034 373.743 248.777C375.755 248.521 377.698 247.87 379.459 246.862C381.22 245.855 382.765 244.511 384.007 242.906C385.248 241.301 386.162 239.468 386.695 237.51L390.691 222.817L400.73 185.963L404.732 171.266C405.265 169.308 405.407 167.265 405.15 165.252C404.894 163.24 404.243 161.298 403.236 159.537C402.228 157.776 400.884 156.231 399.279 154.989C397.675 153.748 395.841 152.835 393.884 152.302L379.192 148.298C378.094 147.999 377.361 146.437 376.564 145.624C375.768 144.81 375.202 143.8 374.927 142.695C374.651 141.591 374.675 140.433 374.996 139.341C375.317 138.249 375.923 137.262 376.752 136.482C378.823 134.533 380.337 132.068 381.139 129.339C381.94 126.61 381.999 123.717 381.31 120.958C380.622 118.198 379.21 115.672 377.221 113.64C375.231 111.607 372.736 110.142 369.992 109.394C367.249 108.646 364.355 108.644 361.61 109.386C358.865 110.129 356.367 111.59 354.374 113.619C352.381 115.648 350.965 118.171 350.272 120.929C349.579 123.687 349.633 126.58 350.43 129.311C350.749 130.403 350.772 131.561 350.495 132.665C350.218 133.769 349.652 134.779 348.854 135.592C348.057 136.404 347.057 136.989 345.959 137.286C344.86 137.583 343.433 138.569 342.335 138.27L327.638 134.27C325.68 133.737 323.637 133.595 321.624 133.852C319.612 134.109 317.669 134.759 315.908 135.767C314.147 136.774 312.602 138.118 311.36 139.723C310.119 141.328 309.205 143.161 308.672 145.119L304.676 159.812C304.378 160.911 303.792 161.91 302.979 162.706C302.165 163.503 301.155 164.068 300.05 164.344C298.946 164.619 297.788 164.595 296.696 164.275C295.604 163.954 294.617 163.347 293.837 162.518C291.889 160.447 289.423 158.933 286.694 158.132C283.965 157.331 281.072 157.271 278.313 157.96C275.553 158.649 273.027 160.06 270.995 162.05C268.962 164.039 267.497 166.534 266.749 169.278C266.002 172.022 265.999 174.915 266.741 177.661C267.484 180.406 268.945 182.903 270.974 184.896C273.003 186.889 275.526 188.305 278.284 188.998C281.042 189.692 283.935 189.637 286.666 188.841C287.758 188.521 288.916 188.499 290.02 188.775C291.124 189.052 292.134 189.619 292.947 190.416C293.759 191.213 294.344 192.213 294.641 193.312C294.938 194.41 294.937 195.568 294.637 196.667L290.635 211.363C290.102 213.321 289.96 215.364 290.217 217.377C290.474 219.389 291.124 221.331 292.131 223.092C293.139 224.853 294.483 226.399 296.088 227.64C297.692 228.881 299.526 229.794 301.483 230.327L316.175 234.331L353.031 244.364" stroke="#F5F5F5" stroke-width="6" stroke-linecap="round" stroke-linejoin="round"/>
</svg>
