<svg width="48" height="48" viewBox="0 0 48 48" fill="none" xmlns="http://www.w3.org/2000/svg">
<path d="M17.333 11.5C18.3355 11.5 19.2715 11.8873 20 12.542C20.7285 11.8873 21.6645 11.5 22.667 11.5H24C24.8284 11.5 25.5 12.1716 25.5 13C25.5 13.8284 24.8284 14.5 24 14.5H22.667C22.4185 14.5 22.1385 14.6095 21.9023 14.875C21.6611 15.1464 21.5 15.5489 21.5 16V32C21.5 32.4511 21.6611 32.8536 21.9023 33.125C22.1385 33.3905 22.4185 33.5 22.667 33.5H24C24.8284 33.5 25.5 34.1716 25.5 35C25.5 35.8284 24.8284 36.5 24 36.5H22.667C21.6645 36.5 20.7285 36.1127 20 35.458C19.2715 36.1127 18.3355 36.5 17.333 36.5H16C15.1716 36.5 14.5 35.8284 14.5 35C14.5 34.1716 15.1716 33.5 16 33.5H17.333C17.5815 33.5 17.8615 33.3905 18.0977 33.125C18.3389 32.8536 18.5 32.4511 18.5 32V16C18.5 15.5489 18.3389 15.1464 18.0977 14.875C17.8615 14.6095 17.5815 14.5 17.333 14.5H16C15.1716 14.5 14.5 13.8284 14.5 13C14.5 12.1716 15.1716 11.5 16 11.5H17.333ZM14 17.5C14.8284 17.5 15.5 18.1716 15.5 19C15.5 19.8284 14.8284 20.5 14 20.5H12.667C12.3727 20.5 12.08 20.6201 11.8574 20.8496C11.6334 21.0807 11.5 21.4039 11.5 21.75V27.25C11.5 27.5961 11.6334 27.9193 11.8574 28.1504C12.08 28.3799 12.3727 28.5 12.667 28.5H14C14.8284 28.5 15.5 29.1716 15.5 30C15.5 30.8284 14.8284 31.5 14 31.5H12.667C11.5468 31.5 10.4817 31.0402 9.7041 30.2383C8.92821 29.438 8.5 28.3624 8.5 27.25V21.75C8.5 20.6376 8.92821 19.562 9.7041 18.7617C10.4817 17.9598 11.5468 17.5 12.667 17.5H14ZM35.1113 17.5C36.2521 17.5001 37.3604 17.9305 38.1885 18.7188C39.019 19.5094 39.5 20.5984 39.5 21.75V27.25C39.5 28.4016 39.019 29.4906 38.1885 30.2812C37.3604 31.0695 36.2521 31.4999 35.1113 31.5H25C24.1716 31.5 23.5 30.8284 23.5 30C23.5 29.1716 24.1716 28.5 25 28.5H35.1113C35.5028 28.4999 35.8647 28.3515 36.1201 28.1084C36.373 27.8676 36.5 27.557 36.5 27.25V21.75C36.5 21.443 36.373 21.1324 36.1201 20.8916C35.8647 20.6485 35.5028 20.5001 35.1113 20.5H25C24.1716 20.5 23.5 19.8284 23.5 19C23.5 18.1716 24.1716 17.5 25 17.5H35.1113Z" fill="white"/>
</svg>
