<svg width="40" height="40" viewBox="0 0 40 40" fill="none" xmlns="http://www.w3.org/2000/svg">
<circle cx="20" cy="20" r="18" fill="#170707" stroke="#D72D2C" stroke-width="4"/>
<path d="M20.7063 12.0532C20.9533 11.2627 21.7946 10.8221 22.5852 11.0688C23.3759 11.3159 23.8166 12.1571 23.5696 12.9478L18.6829 28.5864C18.4355 29.3765 17.5943 29.8176 16.804 29.5708C16.0135 29.3237 15.5728 28.4814 15.8196 27.6909L20.7063 12.0532ZM12.7698 15.3491C13.3555 14.7635 14.3051 14.7635 14.8909 15.3491C15.4766 15.9349 15.4765 16.8844 14.8909 17.4702L12.0413 20.3188L14.8909 23.1685C15.4766 23.7542 15.4765 24.7038 14.8909 25.2896C14.3051 25.875 13.3555 25.8752 12.7698 25.2896L8.8606 21.3794C8.27498 20.7936 8.27487 19.844 8.8606 19.2583L12.7698 15.3491ZM24.4983 15.3491C25.084 14.7634 26.0336 14.7636 26.6194 15.3491L30.5286 19.2583C31.1144 19.8441 31.1144 20.7936 30.5286 21.3794L26.6194 25.2896C26.0336 25.875 25.084 25.8751 24.4983 25.2896C23.9128 24.7038 23.9128 23.7542 24.4983 23.1685L27.3469 20.3188L24.4983 17.4702C23.9128 16.8845 23.9127 15.9348 24.4983 15.3491Z" fill="#D72D2C"/>
</svg>
