<svg width="40" height="40" viewBox="0 0 40 40" fill="none" xmlns="http://www.w3.org/2000/svg">
<circle cx="20" cy="20" r="18" fill="#06080E" stroke="#3993EC" stroke-width="4"/>
<path d="M20 10.0322C21.5205 10.0324 22.9795 10.6367 24.0547 11.7119C25.1297 12.7871 25.7342 14.2452 25.7344 15.7656V17.6533H25.9277C27.6912 17.6536 29.121 19.0832 29.1211 20.8467V26.7744C29.121 28.538 27.6912 29.9675 25.9277 29.9678H14.0723C12.3086 29.9677 10.879 28.538 10.8789 26.7744V20.8467C10.879 19.0831 12.3087 17.6534 14.0723 17.6533H14.2666V15.7656C14.2667 14.2451 14.8711 12.7871 15.9463 11.7119C17.0215 10.6369 18.4796 10.0324 20 10.0322ZM14.0723 20.6533C13.9655 20.6534 13.879 20.7399 13.8789 20.8467V26.7744C13.879 26.8812 13.9655 26.9677 14.0723 26.9678H25.9277C26.0344 26.9675 26.121 26.8811 26.1211 26.7744V20.8467C26.121 20.74 26.0344 20.6536 25.9277 20.6533H14.0723ZM20 13.0322C19.2752 13.0324 18.5799 13.3206 18.0674 13.833C17.5548 14.3456 17.2667 15.0407 17.2666 15.7656V17.6533H22.7344V15.7656C22.7342 15.0409 22.446 14.3456 21.9336 13.833C21.421 13.3204 20.7249 13.0324 20 13.0322Z" fill="#3993EC"/>
</svg>
