<svg width="40" height="40" viewBox="0 0 40 40" fill="none" xmlns="http://www.w3.org/2000/svg">
<circle cx="20" cy="20" r="18" fill="#050E05" stroke="#2AD62E" stroke-width="4"/>
<path d="M26.5625 26.9375C27.3909 26.9375 28.0625 27.6091 28.0625 28.4375C28.0625 29.2659 27.3909 29.9375 26.5625 29.9375H13.4375C12.6091 29.9375 11.9375 29.2659 11.9375 28.4375C11.9375 27.6091 12.6091 26.9375 13.4375 26.9375H26.5625ZM20 10.0625C20.8284 10.0625 21.5 10.7341 21.5 11.5625V21.0664L24.5645 18.002C25.1502 17.4162 26.0998 17.4162 26.6855 18.002C27.2713 18.5877 27.2713 19.5373 26.6855 20.123L21.0605 25.748C20.9898 25.8188 20.9118 25.882 20.8281 25.9375C20.8182 25.9441 20.8079 25.9498 20.7979 25.9561C20.766 25.9761 20.7336 25.995 20.7002 26.0127C20.69 26.0181 20.6792 26.0222 20.6689 26.0273C20.6365 26.0436 20.604 26.0594 20.5703 26.0732C20.5542 26.0799 20.5378 26.0857 20.5215 26.0918C20.4928 26.1025 20.4641 26.1131 20.4346 26.1221C20.4145 26.1281 20.3943 26.1335 20.374 26.1387C20.3463 26.1458 20.3184 26.1526 20.29 26.1582C20.2664 26.1628 20.2425 26.1655 20.2188 26.1689C20.1954 26.1724 20.1722 26.1774 20.1484 26.1797C20.0494 26.1895 19.9496 26.1895 19.8506 26.1797C19.8269 26.1773 19.8036 26.1724 19.7803 26.1689C19.7565 26.1654 19.7326 26.1629 19.709 26.1582C19.6806 26.1526 19.6527 26.1458 19.625 26.1387C19.6047 26.1335 19.5845 26.1281 19.5645 26.1221C19.5353 26.1132 19.5069 26.1024 19.4785 26.0918C19.4619 26.0856 19.4451 26.08 19.4287 26.0732C19.395 26.0593 19.3625 26.0436 19.3301 26.0273C19.3198 26.0222 19.309 26.0181 19.2988 26.0127C19.2655 25.995 19.233 25.9761 19.2012 25.9561C19.1912 25.9497 19.1808 25.9441 19.1709 25.9375C19.0875 25.8821 19.01 25.8186 18.9395 25.748L13.3145 20.123C12.7287 19.5373 12.7287 18.5877 13.3145 18.002C13.9002 17.4162 14.8498 17.4162 15.4355 18.002L18.5 21.0664V11.5625C18.5 10.7341 19.1716 10.0625 20 10.0625Z" fill="#2AD62E"/>
</svg>
