<svg width="26" height="32" viewBox="0 0 26 32" fill="none" xmlns="http://www.w3.org/2000/svg">
<g clip-path="url(#clip0_142_204)">
<path d="M4.76644 32.0016H24.0032C24.7737 32.0016 25.37 31.4174 25.37 30.6348C25.37 29.9788 24.9219 29.4964 24.3635 29.2458C22.548 28.4452 22.1848 25.9414 24.0372 24.1647C24.7669 23.5095 25.3593 22.7796 25.3593 21.2847V4.85692C25.3593 1.67436 23.727 0.00292969 20.5565 0.00292969H4.80282C1.63505 0.00292969 0 1.66224 0 4.85692V27.2082C0 30.3666 1.64718 32.0016 4.76644 32.0016ZM2.89742 22.4954V5.03706C2.89742 3.66197 3.6067 2.903 5.03411 2.903H20.3158C21.7527 2.903 22.4619 3.66197 22.4619 5.03706V20.8476C22.4619 21.561 22.0541 21.9689 21.311 21.9689H5.14562C4.26422 21.9689 3.51618 22.1493 2.89742 22.4954ZM5.13912 29.2586C3.57091 29.2586 2.75101 28.3774 2.75101 26.9778C2.75101 25.6415 3.69485 24.7119 5.25091 24.7119H20.0437C20.2146 24.7119 20.3761 24.6998 20.5107 24.6755C19.7916 26.2348 19.8833 27.9255 20.6618 29.2586H5.13912ZM4.63452 23.3339H6.72357V2.17451H4.63452V23.3339Z" fill="white"/>
</g>
<defs>
<clipPath id="clip0_142_204">
<rect width="25.37" height="32.0013" fill="white"/>
</clipPath>
</defs>
</svg>
