<svg width="32" height="32" viewBox="0 0 32 32" fill="none" xmlns="http://www.w3.org/2000/svg">
<g clip-path="url(#clip0_198_23)">
<path d="M15.8149 31.6298C24.4793 31.6298 31.6326 24.4668 31.6326 15.8149C31.6326 7.15051 24.4668 0 15.8024 0C7.15326 0 0 7.15051 0 15.8149C0 24.4668 7.16582 31.6298 15.8149 31.6298ZM15.8149 28.5145C8.76757 28.5145 3.12787 22.8622 3.12787 15.8149C3.12787 8.76757 8.75501 3.11531 15.8024 3.11531C22.8497 3.11531 28.5172 8.76757 28.5172 15.8149C28.5172 22.8622 22.8622 28.5145 15.8149 28.5145Z" fill="white"/>
<path d="M15.7998 24.4194C16.1993 24.4194 16.4945 24.1368 16.4945 23.7164V22.6888C18.9723 22.4591 20.8331 21.0454 20.8331 18.7198C20.8331 16.632 19.4941 15.4014 16.8273 14.913L16.4945 14.8423V10.9868C17.4866 11.1693 18.1749 11.756 18.4702 12.666C18.6811 13.1667 19.0134 13.4604 19.5502 13.4604C20.1588 13.4604 20.5857 13.0598 20.5857 12.4689C20.5857 12.2993 20.5398 12.1268 20.5009 11.9474C20.0918 10.3628 18.5369 9.22982 16.4945 9.00844V7.98235C16.4945 7.56193 16.1993 7.2793 15.7998 7.2793C15.3973 7.2793 15.1049 7.56193 15.1049 7.98235V9.00844C12.6923 9.24943 10.981 10.7232 10.981 12.8578C10.981 14.8407 12.3087 16.007 14.8627 16.5931L15.1049 16.6513V20.7285C13.8565 20.5515 13.1223 19.8714 12.8856 18.9586C12.666 18.4133 12.324 18.1407 11.804 18.1407C11.1733 18.1407 10.7617 18.5578 10.7617 19.1653C10.7617 19.3447 10.7951 19.5171 10.8548 19.6923C11.289 21.329 12.9348 22.4784 15.1049 22.6665V23.7164C15.1049 24.1368 15.3973 24.4194 15.7998 24.4194ZM15.1049 14.4816L14.9977 14.4509C13.7494 14.0998 13.1866 13.5479 13.1866 12.7245C13.1866 11.8706 13.9166 11.1724 15.1049 10.9758V14.4816ZM16.4945 16.9967L16.7927 17.065C18.1455 17.4316 18.6177 17.9876 18.6177 18.8766C18.6177 19.8491 17.9101 20.5641 16.4945 20.7285V16.9967Z" fill="white"/>
</g>
<defs>
<clipPath id="clip0_198_23">
<rect width="32" height="31.6396" fill="white"/>
</clipPath>
</defs>
</svg>
