<svg width="32" height="19" viewBox="0 0 32 19" fill="none" xmlns="http://www.w3.org/2000/svg">
<path d="M1.85082 15.7428C2.90361 15.7428 3.71157 14.935 3.71157 13.9065V4.64146C3.71157 3.59872 2.90361 2.78313 1.85082 2.78313C0.81013 2.78313 0 3.59872 0 4.64146V13.9065C0 14.935 0.81013 15.7428 1.85082 15.7428ZM7.92148 18.5479C9.6592 18.5479 10.857 17.3617 10.857 15.687V2.87303C10.857 1.18845 9.6592 0 7.92148 0C6.19149 0 4.99588 1.18845 4.99588 2.87303V15.687C4.99588 17.3617 6.19149 18.5479 7.92148 18.5479ZM12.2327 11.7843H19.8588V6.76366H12.2327V11.7843ZM24.1678 18.5479C25.9099 18.5479 27.1055 17.3617 27.1055 15.687V2.87303C27.1055 1.18845 25.9099 0 24.1678 0C22.44 0 21.2444 1.18845 21.2444 2.87303V15.687C21.2444 17.3617 22.44 18.5479 24.1678 18.5479ZM30.1371 15.7428C31.1802 15.7428 32 14.935 32 13.9065V4.64146C32 3.59872 31.1802 2.78313 30.1371 2.78313C29.0965 2.78313 28.2885 3.59872 28.2885 4.64146V13.9065C28.2885 14.935 29.0965 15.7428 30.1371 15.7428Z" fill="white"/>
</svg>
