<svg width="32" height="29" viewBox="0 0 32 29" fill="none" xmlns="http://www.w3.org/2000/svg">
<path d="M0.520874 12.8707L5.55138 17.9135C6.26689 18.629 7.43732 18.6465 8.13797 17.7771L11.2327 13.9651C11.4326 13.7301 11.7354 13.8584 11.7354 14.1476V20.6115L6.12755 19.9848C4.10524 19.7512 3.44381 22.7253 5.39451 23.3665L11.7841 25.4869C11.5015 26.8412 12.6883 27.9864 14.0385 27.5422L16.0023 26.9033L17.9661 27.5422C19.3136 27.9864 20.5003 26.8412 20.2178 25.4869L26.6222 23.3665C28.5703 22.7253 27.8993 19.7512 25.877 19.9848L20.2692 20.6115V14.1476C20.2692 13.8584 20.5841 13.7354 20.7719 13.9651L23.8666 17.7771C24.5646 18.6465 25.735 18.629 26.4505 17.9135L31.481 12.8707C32.1668 12.1728 32.1817 11.0969 31.481 10.4137C30.8154 9.73747 29.7098 9.74014 29.024 10.4137L25.3597 14.0849L21.6185 9.49945C20.9784 8.72035 20.0157 8.22889 18.9882 8.22889H13.0285C11.9862 8.22889 11.0356 8.72035 10.3834 9.49945L6.64218 14.0849L2.98057 10.4137C2.2921 9.74014 1.18646 9.73747 0.520874 10.4137C-0.177098 11.0969 -0.164916 12.1728 0.520874 12.8707ZM16.0023 6.67695C17.8359 6.67695 19.3198 5.17819 19.3198 3.3202C19.3198 1.48657 17.8359 0 16.0023 0C14.1443 0 12.6455 1.48657 12.6455 3.3202C12.6455 5.17819 14.1443 6.67695 16.0023 6.67695Z" fill="white"/>
</svg>
