<svg width="28" height="32" viewBox="0 0 28 32" fill="none" xmlns="http://www.w3.org/2000/svg">
<g clip-path="url(#clip0_142_213)">
<path d="M1.57368 29.3125C3.63587 31.3922 6.3229 31.4156 8.36166 29.3769C9.88765 27.8509 11.3691 24.4702 12.5108 22.6663L15.5089 25.6774C16.5245 26.7035 17.7646 26.7081 18.7262 25.7183L19.8198 24.6248C20.8201 23.6092 20.8026 22.4441 19.7789 21.4203L9.47404 11.1072C8.4374 10.0858 7.25936 10.0636 6.25673 11.0663L5.16779 12.1552C4.17804 13.145 4.18035 14.3534 5.20411 15.3748L8.20456 18.373C6.41589 19.5147 3.04352 20.9961 1.50929 22.5198C-0.521232 24.5609 -0.506038 27.2585 1.57368 29.3125ZM5.08846 27.4947C4.22773 27.4947 3.53337 26.7921 3.53337 25.9396C3.53337 25.0894 4.22773 24.3974 5.08846 24.3974C5.94094 24.3974 6.63069 25.0894 6.63069 25.9396C6.63069 26.7921 5.94094 27.4947 5.08846 27.4947ZM21.4225 20.8651L26.4074 15.8825C27.8925 14.3998 27.8515 12.6211 26.3407 11.0799L25.6167 10.3408C24.2798 12.0607 20.4691 14.1069 19.7443 13.3822C19.6284 13.2663 19.6109 13.0368 19.7784 12.8588C21.3226 11.3192 22.3654 9.78113 22.5996 7.33645L15.9828 0.711467C14.6668 -0.606931 12.4493 -0.0987887 11.8281 2.28407C10.982 5.57841 10.2549 7.52265 9.55849 9.01154L21.4225 20.8651Z" fill="white"/>
</g>
<defs>
<clipPath id="clip0_142_213">
<rect width="27.5" height="31.0196" fill="white"/>
</clipPath>
</defs>
</svg>
