<svg width="32" height="32" viewBox="0 0 32 32" fill="none" xmlns="http://www.w3.org/2000/svg">
<path d="M0 14.1173C0 17.1438 1.61977 19.4885 3.70885 19.4885C5.80325 19.4885 7.43523 17.1411 7.43523 14.1173C7.43523 11.1111 5.80325 8.75149 3.70885 8.75149C1.61977 8.75149 0 11.1111 0 14.1173ZM7.33972 5.37116C7.33972 8.3774 8.98388 10.7248 11.0635 10.7248C13.1674 10.7248 14.8021 8.36521 14.8021 5.37116C14.8021 2.34738 13.1674 0 11.0635 0C8.98122 0 7.33972 2.34738 7.33972 5.37116ZM17.2101 5.37116C17.2101 8.36521 18.8299 10.7248 20.9365 10.7248C23.0134 10.7248 24.6603 8.3774 24.6603 5.37116C24.6603 2.34738 23.0188 0 20.9365 0C18.8299 0 17.2101 2.34738 17.2101 5.37116ZM24.5647 14.1173C24.5647 17.1411 26.1967 19.4885 28.2911 19.4885C30.3802 19.4885 32 17.1438 32 14.1173C32 11.1111 30.3802 8.75149 28.2911 8.75149C26.1967 8.75149 24.5647 11.1111 24.5647 14.1173ZM4.6165 25.7759C4.6165 28.8914 6.70972 31.1063 9.774 31.1063C11.2792 31.1063 12.3773 30.6844 13.4067 30.3272C14.2399 30.0323 15.03 29.7726 15.9986 29.7726C16.9578 29.7726 17.7479 30.0323 18.5933 30.3272C19.6227 30.6844 20.7086 31.1063 22.2138 31.1063C25.2903 31.1063 27.3835 28.8914 27.3835 25.7759C27.3835 23.1577 25.8107 21.8204 24.3323 20.6125C23.5059 19.9524 22.7227 19.3302 22.187 18.505C21.7486 17.8461 21.3767 17.1277 21.0481 16.4111C19.9661 14.1036 19.1019 11.8872 15.9986 11.8872C12.8859 11.8872 12.0339 14.1036 10.9519 16.3989C10.6084 17.1277 10.2513 17.8339 9.82518 18.4805C9.27732 19.3058 8.48187 19.9524 7.66765 20.6125C6.18926 21.8204 4.6165 23.1699 4.6165 25.7759Z" fill="white"/>
</svg>
