<svg width="480" height="480" viewBox="0 0 480 480" fill="none" xmlns="http://www.w3.org/2000/svg">
<g clip-path="url(#clip0_132_33)">
<path d="M204.627 346.695H275.352V257.917C275.352 252.175 271.642 248.443 265.899 248.443H214.224C208.381 248.443 204.627 252.175 204.627 257.917V346.695ZM156.521 362.696H322.852C341.435 362.696 352.39 351.965 352.39 333.849V197.648L328.308 181.14V326.487C328.308 334.277 324.072 338.614 316.505 338.614H162.869C155.201 338.614 150.965 334.277 150.965 326.487V181.241L126.883 197.648V333.849C126.883 351.965 137.815 362.696 156.521 362.696ZM90 223.918C90 230.263 94.7741 235.676 102.562 235.676C106.38 235.676 109.782 233.7 112.784 231.234L234.875 128.801C238.176 125.878 242.048 125.878 245.372 128.801L367.396 231.234C370.319 233.7 373.721 235.676 377.539 235.676C384.599 235.676 390 231.293 390 224.221C390 220.068 388.395 216.858 385.283 214.203L257.346 106.671C246.834 97.7764 233.513 97.7764 222.9 106.671L94.8184 214.225C91.6053 216.88 90 220.493 90 223.918ZM317.665 164.389L352.39 193.611V134.278C352.39 128.737 348.859 125.207 343.318 125.207H326.759C321.318 125.207 317.665 128.737 317.665 134.278V164.389Z" fill="white"/>
</g>
<defs>
<clipPath id="clip0_132_33">
<rect width="300" height="283.345" fill="white" transform="translate(90 100)"/>
</clipPath>
</defs>
</svg>
