<svg width="480" height="480" viewBox="0 0 480 480" fill="none" xmlns="http://www.w3.org/2000/svg">
<g clip-path="url(#clip0_129_8)">
<path d="M375.385 161.378V236.16C371.207 235.42 366.899 235.092 362.519 235.092C358.003 235.092 353.561 235.443 349.255 236.225V200.185C349.255 188.563 343.091 182.737 331.891 182.737H147.863C136.665 182.737 130.609 188.563 130.609 200.185V323.413C130.609 335.145 136.665 340.885 147.863 340.885H276.891C278.866 350.251 282.377 359.064 287.204 367.016H148.231C119.443 367.016 104.479 352.27 104.479 323.701V161.378C104.479 132.785 119.443 118.063 148.231 118.063H331.742C360.529 118.063 375.385 132.895 375.385 161.378Z" fill="white"/>
<path d="M184.891 300.807V308.652C184.891 313.416 183.352 314.907 178.478 314.907H170.743C165.869 314.907 164.33 313.416 164.33 308.652V300.807C164.33 296.043 165.869 294.661 170.743 294.661H178.478C183.352 294.661 184.891 296.043 184.891 300.807ZM228.476 300.807V308.652C228.476 313.416 226.936 314.907 222.196 314.907H214.327C209.587 314.907 207.938 313.416 207.938 308.652V300.807C207.938 296.043 209.587 294.661 214.327 294.661H222.196C226.936 294.661 228.476 296.043 228.476 300.807ZM272.193 300.807V308.652C272.193 313.416 270.521 314.907 265.78 314.907H257.912C253.171 314.907 251.523 313.416 251.523 308.652V300.807C251.523 296.043 253.171 294.661 257.912 294.661H265.78C270.521 294.661 272.193 296.043 272.193 300.807ZM184.891 257.865V265.734C184.891 270.474 183.352 271.88 178.478 271.88H170.743C165.869 271.88 164.33 270.474 164.33 265.734V257.865C164.33 253.125 165.869 251.719 170.743 251.719H178.478C183.352 251.719 184.891 253.125 184.891 257.865ZM228.476 257.865V265.734C228.476 270.474 226.936 271.88 222.196 271.88H214.327C209.587 271.88 207.938 270.474 207.938 265.734V257.865C207.938 253.125 209.587 251.719 214.327 251.719H222.196C226.936 251.719 228.476 253.125 228.476 257.865ZM272.193 257.865V265.734C272.193 270.474 270.521 271.88 265.78 271.88H257.912C253.171 271.88 251.523 270.474 251.523 265.734V257.865C251.523 253.125 253.171 251.719 257.912 251.719H265.78C270.521 251.719 272.193 253.125 272.193 257.865ZM228.476 214.948V222.817C228.476 227.557 226.936 228.962 222.196 228.962H214.327C209.587 228.962 207.938 227.557 207.938 222.817V214.948C207.938 210.207 209.587 208.692 214.327 208.692H222.196C226.936 208.692 228.476 210.207 228.476 214.948ZM272.193 214.948V222.817C272.193 227.557 270.521 228.962 265.78 228.962H257.912C253.171 228.962 251.523 227.557 251.523 222.817V214.948C251.523 210.207 253.171 208.692 257.912 208.692H265.78C270.521 208.692 272.193 210.207 272.193 214.948ZM315.778 214.948V222.817C315.778 227.557 314.129 228.962 309.389 228.962H301.52C296.78 228.962 295.241 227.557 295.241 222.817V214.948C295.241 210.207 296.78 208.692 301.52 208.692H309.389C314.129 208.692 315.778 210.207 315.778 214.948Z" fill="white"/>
<path d="M431.164 322.633C431.164 360.191 399.752 391.3 362.519 391.3C324.852 391.3 293.877 360.41 293.877 322.633C293.877 285.098 324.852 254.014 362.519 254.014C400.103 254.014 431.164 284.989 431.164 322.633ZM385.663 292.407L354.151 335.976L338.683 319.029C337.133 317.274 334.711 315.988 331.67 315.988C326.546 315.988 322.091 319.781 322.091 325.519C322.091 327.77 323.046 330.363 324.839 332.337L347.164 356.785C349.138 358.916 352.139 359.85 354.744 359.85C357.991 359.85 360.995 358.505 362.653 356.289L401.189 303.186C402.508 301.333 403.176 299.249 403.176 297.59C403.176 292.322 398.743 288.169 393.643 288.169C390.266 288.169 387.503 289.913 385.663 292.407Z" fill="white"/>
</g>
<defs>
<clipPath id="clip0_129_8">
<rect width="420" height="335.673" fill="white" transform="translate(30 74.5703)"/>
</clipPath>
</defs>
</svg>
