<svg width="470" height="470" viewBox="0 0 470 470" fill="none" xmlns="http://www.w3.org/2000/svg">
<rect x="10" y="10" width="450" height="450" rx="70" fill="#131315" stroke="#2C2E37" stroke-width="20"/>
<path d="M288.605 131.464H169.971C157.809 131.464 151.097 137.922 151.097 150.809V298.183C151.097 311.046 157.809 317.419 169.971 317.419H316.031C328.192 317.419 334.797 311.046 334.797 298.183V179.226L360.447 153.221V300.362C360.447 328.72 345.771 343.356 317.516 343.356H168.401C140.253 343.356 125.471 328.72 125.471 300.362V148.521C125.471 120.273 140.253 105.527 168.401 105.527H314.231L288.605 131.464Z" fill="white"/>
<path d="M217.794 254.952L244.406 243.556L363.841 122.78L343.873 102.811L224.57 223.563L212.774 249.738C211.493 252.727 214.791 256.177 217.794 254.952ZM373.826 112.782L382.961 103.295C387.997 97.9813 388.113 90.7214 383.126 85.8284L379.694 82.2699C375.239 77.8085 367.888 78.5049 363.006 83.3369L353.858 92.5114L373.826 112.782Z" fill="white"/>
</svg>
