<svg width="448" height="448" viewBox="0 0 448 448" fill="none" xmlns="http://www.w3.org/2000/svg">
<g filter="url(#filter0_d_246_14)">
<rect x="4" width="440" height="440" rx="80" fill="#141414"/>
</g>
<path d="M274.173 123.074H163.111C151.725 123.074 145.441 129.12 145.441 141.184V279.152C145.441 291.193 151.725 297.16 163.111 297.16H299.848C311.233 297.16 317.416 291.193 317.416 279.152V167.787L341.429 143.443V281.192C341.429 307.739 327.69 321.441 301.238 321.441H161.641C135.29 321.441 121.451 307.739 121.451 281.192V139.042C121.451 112.597 135.29 98.793 161.641 98.793H298.163L274.173 123.074Z" fill="white"/>
<path d="M207.882 238.679L232.795 228.011L344.606 114.944L325.913 96.2497L214.224 209.294L203.182 233.799C201.982 236.597 205.07 239.827 207.882 238.679ZM353.954 105.585L362.505 96.7034C367.221 91.7285 367.329 84.932 362.66 80.3513L359.447 77.0199C355.276 72.8433 348.395 73.4952 343.825 78.0188L335.261 86.6077L353.954 105.585Z" fill="white"/>
<defs>
<filter id="filter0_d_246_14" x="0" y="0" width="448" height="448" filterUnits="userSpaceOnUse" color-interpolation-filters="sRGB">
<feFlood flood-opacity="0" result="BackgroundImageFix"/>
<feColorMatrix in="SourceAlpha" type="matrix" values="0 0 0 0 0 0 0 0 0 0 0 0 0 0 0 0 0 0 127 0" result="hardAlpha"/>
<feOffset dy="4"/>
<feGaussianBlur stdDeviation="2"/>
<feComposite in2="hardAlpha" operator="out"/>
<feColorMatrix type="matrix" values="0 0 0 0 0 0 0 0 0 0 0 0 0 0 0 0 0 0 0.25 0"/>
<feBlend mode="normal" in2="BackgroundImageFix" result="effect1_dropShadow_246_14"/>
<feBlend mode="normal" in="SourceGraphic" in2="effect1_dropShadow_246_14" result="shape"/>
</filter>
</defs>
</svg>
