<svg width="51" height="64" viewBox="0 0 51 64" fill="none" xmlns="http://www.w3.org/2000/svg">
<g clip-path="url(#clip0_142_204)">
<path d="M9.53249 63.9996H48.0044C49.5454 63.9996 50.7379 62.8313 50.7379 61.2661C50.7379 59.9541 49.8417 58.9893 48.7249 58.4883C45.0941 56.887 44.3677 51.8797 48.0724 48.3264C49.5317 47.0161 50.7165 45.5563 50.7165 42.5667V9.71246C50.7165 3.34761 47.452 0.00488281 41.1113 0.00488281H9.60525C3.26997 0.00488281 0 3.32336 0 9.71246V54.4132C0 60.7296 3.29422 63.9996 9.53249 63.9996ZM5.79459 44.9879V10.0727C5.79459 7.32266 7.21311 5.80479 10.0678 5.80479H40.6298C43.5035 5.80479 44.922 7.32266 44.922 10.0727V41.6924C44.922 43.1192 44.1063 43.9349 42.6203 43.9349H10.2908C8.52808 43.9349 7.03208 44.2957 5.79459 44.9879ZM10.2778 58.5137C7.14152 58.5137 5.50179 56.7515 5.50179 53.9524C5.50179 51.2799 7.38939 49.4207 10.5014 49.4207H40.0856C40.4275 49.4207 40.7505 49.3965 41.0197 49.348C39.5816 52.4665 39.765 55.8477 41.3219 58.5137H10.2778ZM9.26865 46.6648H13.4466V4.34787H9.26865V46.6648Z" fill="white"/>
</g>
<defs>
<clipPath id="clip0_142_204">
<rect width="50.7379" height="64" fill="white"/>
</clipPath>
</defs>
</svg>
