<svg width="64" height="64" viewBox="0 0 64 64" fill="none" xmlns="http://www.w3.org/2000/svg">
<g clip-path="url(#clip0_198_23)">
<path d="M31.6298 63.2596C48.9586 63.2596 63.2651 48.9335 63.2651 31.6298C63.2651 14.301 48.9335 0 31.6047 0C14.3065 0 0 14.301 0 31.6298C0 48.9335 14.3316 63.2596 31.6298 63.2596ZM31.6298 57.0289C17.5351 57.0289 6.25575 45.7245 6.25575 31.6298C6.25575 17.5351 17.51 6.23062 31.6047 6.23062C45.6994 6.23062 57.0344 17.5351 57.0344 31.6298C57.0344 45.7245 45.7245 57.0289 31.6298 57.0289Z" fill="white"/>
<path d="M31.5995 48.8388C32.3987 48.8388 32.989 48.2737 32.989 47.4327V45.3776C37.9447 44.9182 41.6662 42.0908 41.6662 37.4396C41.6662 33.264 38.9882 30.8028 33.6547 29.8261L32.989 29.6846V21.9737C34.9732 22.3386 36.3499 23.5121 36.9403 25.3321C37.3623 26.3335 38.0268 26.9208 39.1003 26.9208C40.3177 26.9208 41.1713 26.1197 41.1713 24.9378C41.1713 24.5985 41.0796 24.2536 41.0018 23.8948C40.1837 20.7255 37.0738 18.4596 32.989 18.0169V15.9647C32.989 15.1239 32.3987 14.5586 31.5995 14.5586C30.7947 14.5586 30.2099 15.1239 30.2099 15.9647V18.0169C25.3847 18.4989 21.962 21.4463 21.962 25.7156C21.962 29.6814 24.6174 32.0141 29.7254 33.1862L30.2099 33.3026V41.457C27.713 41.1031 26.2446 39.7428 25.7711 37.9172C25.3319 36.8266 24.648 36.2814 23.608 36.2814C22.3465 36.2814 21.5234 37.1156 21.5234 38.3306C21.5234 38.6895 21.5903 39.0342 21.7096 39.3846C22.578 42.6579 25.8697 44.9568 30.2099 45.3329V47.4327C30.2099 48.2737 30.7947 48.8388 31.5995 48.8388ZM30.2099 28.9632L29.9955 28.9019C27.4988 28.1995 26.3731 27.0958 26.3731 25.449C26.3731 23.7412 27.8331 22.3449 30.2099 21.9515V28.9632ZM32.989 33.9934L33.5855 34.13C36.2911 34.8631 37.2355 35.9753 37.2355 37.7531C37.2355 39.6981 35.8202 41.1281 32.989 41.457V33.9934Z" fill="white"/>
</g>
<defs>
<clipPath id="clip0_198_23">
<rect width="64" height="63.2792" fill="white"/>
</clipPath>
</defs>
</svg>
