<svg width="64" height="38" viewBox="0 0 64 38" fill="none" xmlns="http://www.w3.org/2000/svg">
<path d="M3.70165 31.4856C5.80721 31.4856 7.42313 29.8699 7.42313 27.813V9.28291C7.42313 7.19744 5.80721 5.56626 3.70165 5.56626C1.62026 5.56626 0 7.19744 0 9.28291V27.813C0 29.8699 1.62026 31.4856 3.70165 31.4856ZM15.843 37.0959C19.3184 37.0959 21.714 34.7233 21.714 31.374V5.74606C21.714 2.37691 19.3184 0 15.843 0C12.383 0 9.99176 2.37691 9.99176 5.74606V31.374C9.99176 34.7233 12.383 37.0959 15.843 37.0959ZM24.4653 23.5685H39.7176V13.5273H24.4653V23.5685ZM48.3357 37.0959C51.8198 37.0959 54.2111 34.7233 54.2111 31.374V5.74606C54.2111 2.37691 51.8198 0 48.3357 0C44.88 0 42.4888 2.37691 42.4888 5.74606V31.374C42.4888 34.7233 44.88 37.0959 48.3357 37.0959ZM60.2742 31.4856C62.3604 31.4856 64 29.8699 64 27.813V9.28291C64 7.19744 62.3604 5.56626 60.2742 5.56626C58.1931 5.56626 56.5771 7.19744 56.5771 9.28291V27.813C56.5771 29.8699 58.1931 31.4856 60.2742 31.4856Z" fill="white"/>
</svg>
