<svg width="64" height="57" viewBox="0 0 64 57" fill="none" xmlns="http://www.w3.org/2000/svg">
<path d="M1.04175 25.7415L11.1028 35.8269C12.5338 37.258 14.8746 37.293 16.2759 35.5541L22.4653 27.9302C22.8652 27.4601 23.4708 27.7169 23.4708 28.2951V41.2229L12.2551 39.9696C8.21049 39.5025 6.88762 45.4506 10.789 46.733L23.5683 50.9737C23.0031 53.6825 25.3767 55.9728 28.077 55.0843L32.0046 53.8067L35.9321 55.0843C38.6271 55.9728 41.0007 53.6825 40.4355 50.9737L53.2445 46.733C57.1405 45.4506 55.7987 39.5025 51.7541 39.9696L40.5383 41.2229V28.2951C40.5383 27.7169 41.1682 27.4708 41.5438 27.9302L47.7332 35.5541C49.1291 37.293 51.47 37.258 52.9009 35.8269L62.962 25.7415C64.3336 24.3456 64.3633 22.1937 62.962 20.8275C61.6309 19.4749 59.4195 19.4803 58.048 20.8275L50.7194 28.1697L43.2369 18.9989C41.9568 17.4407 40.0314 16.4578 37.9764 16.4578H26.057C23.9724 16.4578 22.0713 17.4407 20.7669 18.9989L13.2844 28.1697L5.96113 20.8275C4.58421 19.4803 2.37292 19.4749 1.04175 20.8275C-0.354197 22.1937 -0.329831 24.3456 1.04175 25.7415ZM32.0046 13.3539C35.6718 13.3539 38.6396 10.3564 38.6396 6.6404C38.6396 2.97315 35.6718 0 32.0046 0C28.2886 0 25.291 2.97315 25.291 6.6404C25.291 10.3564 28.2886 13.3539 32.0046 13.3539Z" fill="white"/>
</svg>
