<svg width="55" height="63" viewBox="0 0 55 63" fill="none" xmlns="http://www.w3.org/2000/svg">
<g clip-path="url(#clip0_142_213)">
<path d="M3.14735 58.6249C7.27173 62.7844 12.6458 62.8311 16.7233 58.7537C19.7753 55.7017 22.7381 48.9405 25.0216 45.3327L31.0179 51.3548C33.049 53.4069 35.5291 53.4162 37.4525 51.4366L39.6396 49.2495C41.6402 47.2185 41.6052 44.8882 39.5577 42.8407L18.9481 22.2145C16.8748 20.1716 14.5187 20.1273 12.5135 22.1326L10.3356 24.3104C8.35609 26.2899 8.3607 28.7068 10.4082 30.7497L16.4091 36.746C12.8318 39.0294 6.08704 41.9923 3.01858 45.0397C-1.04246 49.1218 -1.01208 54.517 3.14735 58.6249ZM10.1769 54.9894C8.45547 54.9894 7.06674 53.5841 7.06674 51.8792C7.06674 50.1788 8.45547 48.7947 10.1769 48.7947C11.8819 48.7947 13.2614 50.1788 13.2614 51.8792C13.2614 53.5841 11.8819 54.9894 10.1769 54.9894ZM42.8451 41.7301L52.8148 31.7649C55.7849 28.7995 55.703 25.2423 52.6814 22.1599L51.2335 20.6816C48.5596 24.1214 40.9382 28.2139 39.4887 26.7643C39.2569 26.5326 39.2219 26.0736 39.5567 25.7177C42.6452 22.6384 44.7309 19.5623 45.1991 14.6729L31.9657 1.42293C29.3335 -1.21386 24.8985 -0.197577 23.6561 4.56814C21.964 11.1568 20.5098 15.0453 19.117 18.0231L42.8451 41.7301Z" fill="white"/>
</g>
<defs>
<clipPath id="clip0_142_213">
<rect width="55" height="62.0393" fill="white"/>
</clipPath>
</defs>
</svg>
