<svg width="64" height="63" viewBox="0 0 64 63" fill="none" xmlns="http://www.w3.org/2000/svg">
<path d="M0 28.2346C0 34.2876 3.23955 38.977 7.4177 38.977C11.6065 38.977 14.8705 34.2822 14.8705 28.2346C14.8705 22.2222 11.6065 17.503 7.4177 17.503C3.23955 17.503 0 22.2222 0 28.2346ZM14.6794 10.7423C14.6794 16.7548 17.9678 21.4496 22.1269 21.4496C26.3348 21.4496 29.6041 16.7304 29.6041 10.7423C29.6041 4.69475 26.3348 0 22.1269 0C17.9624 0 14.6794 4.69475 14.6794 10.7423ZM34.4203 10.7423C34.4203 16.7304 37.6598 21.4496 41.8731 21.4496C46.0268 21.4496 49.3206 16.7548 49.3206 10.7423C49.3206 4.69475 46.0376 0 41.8731 0C37.6598 0 34.4203 4.69475 34.4203 10.7423ZM49.1295 28.2346C49.1295 34.2822 52.3934 38.977 56.5823 38.977C60.7604 38.977 64 34.2876 64 28.2346C64 22.2222 60.7604 17.503 56.5823 17.503C52.3934 17.503 49.1295 22.2222 49.1295 28.2346ZM9.233 51.5519C9.233 57.7828 13.4194 62.2127 19.548 62.2127C22.5584 62.2127 24.7546 61.3687 26.8133 60.6545C28.4798 60.0647 30.06 59.5451 31.9973 59.5451C33.9156 59.5451 35.4957 60.0647 37.1867 60.6545C39.2454 61.3687 41.4172 62.2127 44.4276 62.2127C50.5806 62.2127 54.767 57.7828 54.767 51.5519C54.767 46.3155 51.6215 43.6408 48.6646 41.225C47.0119 39.9049 45.4454 38.6603 44.374 37.0099C43.4973 35.6922 42.7533 34.2554 42.0963 32.8222C39.9322 28.2072 38.2038 23.7743 31.9973 23.7743C25.7718 23.7743 24.0678 28.2072 21.9037 32.7978C21.2169 34.2554 20.5026 35.6678 19.6504 36.9611C18.5546 38.6116 16.9637 39.9049 15.3353 41.225C12.3785 43.6408 9.233 46.3399 9.233 51.5519Z" fill="white"/>
</svg>
